<svg width="105" height="105" viewBox="0 0 105 105" fill="none" xmlns="http://www.w3.org/2000/svg">
<path d="M2.37637 33.5814C-0.159788 31.0424 -0.13072 26.8957 2.44178 24.3203L24.2935 2.44442C26.866 -0.130924 31.0081 -0.160024 33.5443 2.37895C36.0804 4.91792 36.0514 9.06467 33.4789 11.64L11.6272 33.5159C9.05469 36.0913 4.91254 36.1204 2.37637 33.5814Z" fill="#212E45"/>
<path d="M24.0752 33.4284L2.52872 11.8654C-0.00744438 9.31911 0.0216233 5.17236 2.59412 2.59701C5.16662 0.0216641 9.30877 -0.00743592 11.8449 2.53154L33.3914 24.1019C35.9276 26.6409 35.8985 30.7876 33.326 33.363C30.7535 35.9383 26.6114 35.9674 24.0752 33.4284Z" fill="#212E45"/>
<path d="M71.9428 33.0938C69.4066 30.5548 69.4357 26.4081 72.0082 23.8327L93.8599 1.94955C96.4324 -0.625797 100.575 -0.654897 103.111 1.88408C105.647 4.42305 105.618 8.5698 103.045 11.1451L81.1936 33.0211C78.6211 35.5964 74.4789 35.6255 71.9428 33.0865V33.0938Z" fill="#FF666B"/>
<path d="M93.6416 32.9338L72.0951 11.3635C69.559 8.82448 69.588 4.67773 72.1605 2.10238C74.733 -0.472965 78.8752 -0.502065 81.4113 2.03691L102.958 23.6073C105.494 26.1462 105.465 30.293 102.892 32.8683C100.32 35.4437 96.1778 35.4728 93.6416 32.9338Z" fill="#FF666B"/>
<path d="M1.88223 103.116C-0.653929 100.577 -0.624861 96.4301 1.94764 93.8548L23.7993 71.9788C26.3718 69.4035 30.514 69.3744 33.0501 71.9134C35.5863 74.4523 35.5572 78.5991 32.9847 81.1744L11.133 103.05C8.56055 105.626 4.41839 105.655 1.88223 103.116Z" fill="#FF666B"/>
<path d="M23.581 102.963L2.03458 81.3927C-0.501585 78.8538 -0.472517 74.707 2.09998 72.1317C4.67247 69.5563 8.81463 69.5272 11.3508 72.0662L32.8973 93.6366C35.4334 96.1755 35.4044 100.322 32.8319 102.898C30.2594 105.473 26.1172 105.502 23.581 102.963Z" fill="#FF666B"/>
<path d="M71.4555 102.621C68.9193 100.082 68.9484 95.9355 71.5209 93.3601L93.3726 71.4842C95.9451 68.9089 100.087 68.8798 102.623 71.4187C105.16 73.9577 105.13 78.1045 102.558 80.6798L80.7063 102.556C78.1338 105.131 73.9916 105.16 71.4555 102.621Z" fill="#212E45"/>
<path d="M93.1474 102.468L71.601 80.8981C69.0648 78.3591 69.0939 74.2124 71.6664 71.6371C74.2389 69.0617 78.381 69.0326 80.9172 71.5716L102.464 93.1419C105 95.6809 104.971 99.8277 102.398 102.403C99.8258 104.978 95.6836 105.007 93.1474 102.468Z" fill="#212E45"/>
</svg>
