<svg width="80" height="80" viewBox="0 0 80 80" fill="none" xmlns="http://www.w3.org/2000/svg">
<path d="M78.388 60.6955L78.2406 60.5482C76.5009 58.8087 73.9237 58.3268 71.719 59.2129V34.3749H77.6814C78.3136 34.3749 78.8834 33.9939 79.1252 33.4099C79.3669 32.8258 79.2328 32.1535 78.7855 31.7069L47.4953 0.456837C46.8853 -0.152383 45.8968 -0.152227 45.2868 0.456993L36.6965 9.03889C36.086 9.64873 36.0854 10.6381 36.6954 11.2486C37.3054 11.8592 38.2948 11.8597 38.9051 11.2497L46.3913 3.77091L73.9056 31.2499H68.3729L47.4951 10.3989C46.8851 9.78967 45.8968 9.78967 45.2868 10.3989L24.4091 31.2499H18.8763L30.1999 19.9409C30.8105 19.3311 30.8112 18.3419 30.2013 17.7312C29.5915 17.1206 28.6022 17.12 27.9916 17.7298L13.9966 31.7069C13.5492 32.1536 13.4152 32.8258 13.6569 33.4099C13.8986 33.9939 14.4685 34.3749 15.1007 34.3749H21.0938V47.6772H18.7891V46.9205C18.7891 44.0952 16.4907 41.7968 13.6653 41.7968H1.5625C0.699533 41.7968 0 42.4965 0 43.3593V78.4375C0 79.3003 0.699533 80 1.5625 80H13.6653C16.4905 80 18.7891 77.7015 18.7891 74.8762V74.2314L22.8946 76.7179C26.4399 78.8651 30.5046 80.0001 34.6493 80.0001H57.3398C61.772 80.0001 66.1097 78.4639 69.5539 75.674L77.9602 68.8653C79.1703 67.8851 79.9111 66.4309 79.9925 64.8756C80.0739 63.3202 79.4891 61.7968 78.388 60.6955ZM15.6641 74.8762C15.6641 75.9784 14.7675 76.875 13.6653 76.875H3.12501V44.9218H13.6653C14.7674 44.9218 15.6641 45.8183 15.6641 46.9205V74.8762ZM24.2188 34.3749H25.0557C25.4697 34.3749 25.8668 34.2105 26.1597 33.918L46.391 13.7128L66.6222 33.918C66.9151 34.2107 67.3123 34.3749 67.7262 34.3749H68.5939V61.1331C68.5939 61.1901 68.5973 61.2462 68.6033 61.3015L65.3018 63.7843C65.0883 62.7565 64.6017 61.7948 63.8672 61.0602C62.9817 60.1749 61.8047 59.6874 60.5526 59.6874H56.7036V37.3436C56.7036 36.4807 56.004 35.7811 55.141 35.7811H37.641C36.778 35.7811 36.0785 36.4807 36.0785 37.3436V49.2763C34.5429 48.2368 32.734 47.6772 30.8385 47.6772H24.2188V34.3749ZM53.5785 38.9061V59.6874H47.9873C47.1526 59.6874 46.3679 59.3624 45.7803 58.7746L39.1918 52.1554C39.1988 52.0951 39.2035 52.0341 39.2035 51.9719V38.9061H53.5785ZM76.8719 64.7121C76.8361 65.3943 76.5241 66.0068 75.9933 66.4368L67.587 73.2456C64.6975 75.5861 61.0582 76.875 57.3398 76.875H34.6493C31.0754 76.875 27.5704 75.8962 24.5135 74.0448L18.7891 70.5778V50.8022H30.8385C32.5079 50.8022 34.0774 51.4524 35.2554 52.6304L43.5679 60.9818C44.7485 62.1623 46.3179 62.8124 47.9873 62.8124H60.5526C60.97 62.8124 61.3625 62.9749 61.6575 63.2701C62.3739 63.9865 62.4318 65.1667 62.1225 65.9132C62.0301 66.1362 61.9214 66.2954 61.8089 66.4112L61.729 66.4712C61.734 66.4721 61.7384 66.4729 61.7434 66.4738C61.4722 66.7107 61.1928 66.7121 61.0745 66.7121H42.3438C41.264 66.7121 40.2149 66.401 39.3099 65.8123L34.2957 62.551L34.2774 62.5392C33.5548 62.0677 32.5866 62.2707 32.1149 62.9935C31.6432 63.7162 31.8466 64.6843 32.5693 65.156L37.606 68.432C39.0193 69.3512 40.6576 69.8371 42.3438 69.8371H61.0743C62.1229 69.8371 63.0681 69.4714 63.8115 68.8151L72.3378 62.4031C73.4936 61.622 75.0425 61.7691 76.0308 62.7579L76.1783 62.9052C76.6612 63.3882 76.9077 64.0299 76.8719 64.7121Z" fill="#45BF75"/>
<path d="M63.4375 45.4101C62.5745 45.4101 61.875 46.1098 61.875 46.9726V56.8748C61.875 57.7376 62.5745 58.4373 63.4375 58.4373C64.3005 58.4373 65 57.7376 65 56.8748V46.9726C65 46.1098 64.3005 45.4101 63.4375 45.4101Z" fill="#45BF75"/>
<path d="M64.5422 39.9216C64.2516 39.6294 63.8484 39.4638 63.4375 39.4638C63.0266 39.4638 62.6234 39.6294 62.3328 39.9216C62.0422 40.2121 61.875 40.6138 61.875 41.0262C61.875 41.4372 62.0422 41.8404 62.3328 42.1308C62.6234 42.4216 63.0266 42.5887 63.4375 42.5887C63.8484 42.5887 64.2516 42.4216 64.5422 42.1308C64.8328 41.8404 65 41.4372 65 41.0262C65 40.6137 64.8328 40.2121 64.5422 39.9216Z" fill="#45BF75"/>
<path d="M43.884 48.1341C43.5934 47.8436 43.1902 47.6779 42.7793 47.6779C42.3668 47.6779 41.9652 47.8436 41.673 48.1341C41.3824 48.4263 41.2168 48.8279 41.2168 49.2388C41.2168 49.6513 41.3824 50.0529 41.673 50.3451C41.9652 50.6357 42.3684 50.8029 42.7793 50.8029C43.1902 50.8029 43.5918 50.6357 43.884 50.3451C44.1746 50.0529 44.3418 49.6513 44.3418 49.2388C44.3418 48.8279 44.1746 48.4263 43.884 48.1341Z" fill="#45BF75"/>
<path d="M34.5532 13.3844C33.9431 12.7743 32.9537 12.7743 32.3434 13.3844C31.7332 13.9946 31.7332 14.984 32.3434 15.5943L32.3437 15.5944C32.6488 15.8996 33.0485 16.0519 33.4484 16.0519C33.8482 16.0519 34.2482 15.8993 34.5532 15.5943C35.1634 14.9841 35.1632 13.9946 34.5532 13.3844Z" fill="#45BF75"/>
<path d="M46.3916 20.5725C43.0315 20.5725 40.2979 23.3061 40.2979 26.6663C40.2979 30.0264 43.0315 32.76 46.3916 32.76C49.7518 32.76 52.4854 30.0264 52.4854 26.6663C52.4854 23.3061 49.7518 20.5725 46.3916 20.5725ZM46.3916 29.635C44.7546 29.635 43.4229 28.3033 43.4229 26.6663C43.4229 25.0292 44.7546 23.6975 46.3916 23.6975C48.0286 23.6975 49.3604 25.0292 49.3604 26.6663C49.3604 28.3033 48.0286 29.635 46.3916 29.635Z" fill="#45BF75"/>
<path d="M10.4992 68.8952C10.2086 68.6044 9.80704 68.4374 9.39453 68.4374C8.9836 68.4374 8.58203 68.6044 8.28984 68.8952C7.99922 69.1858 7.83203 69.5889 7.83203 69.9999C7.83203 70.4108 7.99922 70.8139 8.28984 71.1044C8.58203 71.395 8.9836 71.5624 9.39453 71.5624C9.80704 71.5624 10.2086 71.3952 10.4992 71.1044C10.7914 70.8139 10.957 70.4108 10.957 69.9999C10.957 69.5889 10.7914 69.1858 10.4992 68.8952Z" fill="#45BF75"/>
</svg>
