<svg width="80" height="80" viewBox="0 0 80 80" fill="none" xmlns="http://www.w3.org/2000/svg">
<path d="M33.3508 1.43129e-05C18.9253 -0.0132962 6.12982 9.25828 1.64976 22.9705C-2.8303 36.6827 2.02284 51.7204 13.6735 60.2267C25.3241 68.7331 41.1256 68.7755 52.8218 60.332L70.8934 78.3902C71.8933 79.3912 73.2501 79.9537 74.665 79.9537C76.0798 79.9537 77.4366 79.3912 78.4365 78.3902C79.4375 77.3903 80 76.0335 80 74.6186C80 73.2038 79.4375 71.847 78.4365 70.8471L60.3649 52.7888C67.6698 42.6457 68.6828 29.2671 62.9885 18.1398C57.2941 7.01236 45.8506 0.00833386 33.3508 1.43129e-05ZM59.5653 63.3039L63.3369 59.5323L67.1085 63.3039L63.3369 67.0755L59.5653 63.3039ZM77.3304 74.632C77.3309 75.3424 77.0479 76.0236 76.5441 76.5244C75.5045 77.5579 73.8254 77.5579 72.7858 76.5244L65.2293 68.9679L68.9876 65.1964L76.5574 72.7662C77.0498 73.2626 77.3274 73.9327 77.3304 74.632ZM61.4578 57.6532L57.6862 61.4248L54.9408 58.6394C56.2814 57.4962 57.5291 56.2484 58.6724 54.9078L61.4578 57.6532ZM33.3508 63.9703C16.422 63.9703 2.69843 50.2467 2.69843 33.3179C2.69843 16.389 16.422 2.66544 33.3508 2.66544C50.2797 2.66544 64.0033 16.389 64.0033 33.3179C64.0033 41.4474 60.7738 49.2439 55.0254 54.9924C49.2769 60.7408 41.4804 63.9703 33.3508 63.9703Z" fill="#45BF75"/>
<path d="M33.3503 5.33087C17.8935 5.33087 5.36328 17.8611 5.36328 33.3179C5.36328 48.7746 17.8935 61.3048 33.3503 61.3048C48.807 61.3048 61.3372 48.7746 61.3372 33.3179C61.3372 17.8611 48.807 5.33087 33.3503 5.33087ZM33.3503 58.6394C25.7437 58.6425 18.5413 55.2151 13.746 49.3104H52.9545C48.1592 55.2151 40.9568 58.6425 33.3503 58.6394ZM33.3503 18.9912L45.3447 27.987V46.645H36.0157V34.6506C36.0157 33.1785 34.8223 31.9851 33.3503 31.9851H28.0194C26.5473 31.9851 25.354 33.1785 25.354 34.6506V46.645H21.3558V27.987L33.3503 18.9912ZM33.3503 46.645H28.0194V34.6506H33.3503V46.645ZM54.8469 46.645H48.0101V29.9861L48.5432 30.3859C48.7739 30.5589 49.0545 30.6524 49.3428 30.6524C49.7623 30.6524 50.1573 30.4549 50.409 30.1193C50.8506 29.5305 50.7313 28.6952 50.1424 28.2535L34.1499 16.2591C33.676 15.9037 33.0245 15.9037 32.5506 16.2591L16.5581 28.2535C15.9692 28.6952 15.8499 29.5305 16.2915 30.1193C16.7332 30.7082 17.5685 30.8275 18.1573 30.3859L18.6904 29.9861V46.645H11.8536C6.17006 37.5149 6.87386 25.7906 13.6088 17.4059C20.3437 9.02128 31.6403 5.80563 41.7813 9.38645C51.9223 12.9673 58.695 22.5633 58.6718 33.3179C58.6709 38.0309 57.3455 42.6488 54.8469 46.645Z" fill="#45BF75"/>
</svg>
