<svg width="86" height="75" viewBox="0 0 86 75" fill="none" xmlns="http://www.w3.org/2000/svg">
<path d="M85.0598 52.9331L82.4264 50.4574C81.9303 49.9911 81.1508 50.0157 80.6852 50.5126C80.2196 51.0094 80.2443 51.7901 80.7403 52.2564L83.3735 54.7321C83.5538 54.9015 83.5922 55.1784 83.4647 55.3905L82.8545 56.4062C82.7413 56.5946 82.5678 56.6446 82.4744 56.6574C82.3813 56.6705 82.2006 56.6697 82.0404 56.5191L80.2446 54.8308C79.8865 54.4941 79.3624 54.4026 78.9119 54.5982C78.4611 54.7937 78.1694 55.2388 78.1697 55.7308L78.1766 72.524L72.2454 72.5261V60.4666C72.2454 58.9849 71.0418 57.7794 69.5623 57.7794H63.912C62.4325 57.7794 61.2289 58.9849 61.2289 60.4666V72.5303L54.3969 72.5329L54.39 55.7399C54.3899 55.248 54.0978 54.8031 53.6468 54.608C53.1958 54.4127 52.6722 54.5045 52.3144 54.8416L50.5202 56.5309C50.3603 56.6816 50.1801 56.6828 50.0862 56.6695C49.9928 56.6567 49.8193 56.6069 49.7059 56.4185L49.0955 55.4036C48.968 55.1917 49.0061 54.9148 49.1862 54.7452L54.001 50.212C54.2488 49.9787 54.3892 49.6532 54.389 49.3127L54.3863 42.1026C54.3863 42.006 54.4312 41.9408 54.4688 41.9031C54.5064 41.8654 54.5714 41.8203 54.668 41.8203L56.6596 41.8197C56.8148 41.8197 56.9413 41.946 56.9413 42.1016L56.9423 44.5901C56.9425 45.082 57.2346 45.5269 57.6854 45.722C58.1361 45.9168 58.6598 45.8253 59.0179 45.4884L59.7526 44.7967C60.6753 45.52 61.5992 46.0361 62.5022 46.3315C62.9395 48.012 64.4675 49.2562 66.2804 49.2562C68.4331 49.2562 70.1843 47.5021 70.1843 45.3464C70.1843 43.1905 68.4329 41.4366 66.2804 41.4366C64.6907 41.4366 63.3208 42.3936 62.7125 43.7623C62.3435 43.5902 61.9622 43.3634 61.5732 43.0827L65.8836 39.0243C66.1023 38.8183 66.4453 38.8179 66.6645 39.0242L75.0755 46.9314C75.5716 47.3977 76.3511 47.3731 76.8167 46.8762C77.2823 46.3794 77.2578 45.5987 76.7616 45.1324L70.0036 38.7791C70.1924 35.647 69.6055 31.9713 68.3237 28.3304C67.8334 26.9377 67.2588 25.6077 66.6203 24.3631C68.1683 17.9042 66.431 10.8095 61.4074 5.77838C57.6868 2.05212 52.7401 0 47.4783 0C42.2165 0 37.2697 2.05212 33.549 5.77838C29.8283 9.50464 27.7793 14.4587 27.7793 19.7284C27.7793 22.6536 28.4117 25.4812 29.6098 28.056L13.8646 43.8252C13.3835 44.307 13.3835 45.088 13.8646 45.5698C14.3456 46.0516 15.1255 46.0516 15.6066 45.5698L30.8447 30.309C31.2245 30.9053 31.6387 31.4828 32.0846 32.0398C32.0959 32.0539 32.1073 32.0682 32.1187 32.0824C32.213 32.1993 32.3085 32.3154 32.4056 32.4304C32.4275 32.4563 32.4491 32.4824 32.4711 32.5083C32.5591 32.6118 32.6487 32.714 32.739 32.816C32.7679 32.8486 32.7965 32.8816 32.8257 32.9141C32.9142 33.0125 33.0043 33.1097 33.0948 33.2064C33.1249 33.2386 33.1544 33.2712 33.1847 33.3033C33.3044 33.4296 33.4259 33.555 33.5493 33.6786C33.6726 33.8021 33.7976 33.9235 33.9237 34.0435C33.9566 34.0748 33.9902 34.1052 34.0235 34.1363C34.1191 34.226 34.2151 34.3152 34.3121 34.4028C34.3455 34.4329 34.3794 34.4625 34.4132 34.4923C34.5135 34.5816 34.6142 34.6699 34.716 34.7569C34.7436 34.7805 34.7715 34.8037 34.7992 34.8271C34.9119 34.9224 35.0256 35.0165 35.1402 35.109C35.1563 35.1221 35.1726 35.1351 35.1889 35.1482C35.7442 35.5938 36.3196 36.0078 36.9139 36.3875L23.3395 49.9822L18.8932 50.7493C17.9415 50.9135 17.1919 51.6643 17.0279 52.6174L16.3433 56.5975L12.3686 57.2832C11.4168 57.4473 10.6673 58.1981 10.5035 59.1513L9.73758 63.6042L8.65906 64.6845L2.46723 64.8073L2.58985 58.6062L10.1506 51.0343C10.6317 50.5525 10.6317 49.7714 10.1506 49.2897C9.66956 48.8079 8.88968 48.8079 8.40862 49.2897L0.797116 56.9121C0.377363 57.3326 0.139687 57.8916 0.128097 58.4858L0.000441076 64.9428C-0.0118206 65.5623 0.23207 66.1691 0.669628 66.6073C1.09677 67.0349 1.68399 67.278 2.28717 67.278C2.30195 67.278 2.3169 67.278 2.33168 67.2777L8.77899 67.1498C9.37242 67.138 9.93058 66.9002 10.3507 66.4796L11.5192 65.3093C11.8552 64.973 12.0754 64.5474 12.156 64.0786L12.9102 59.6934L16.8846 59.0078C17.8364 58.8436 18.586 58.0928 18.7499 57.1397L19.4346 53.1591L23.8132 52.4038C24.2811 52.323 24.7061 52.1026 25.0419 51.7662L39.1637 37.6232C41.7346 38.8233 44.5578 39.4565 47.4786 39.4565C49.9303 39.4565 52.3134 39.0105 54.5363 38.1577C54.752 38.5659 54.9744 38.9651 55.2037 39.3524L54.6675 39.3525C53.9342 39.3529 53.2448 39.639 52.7266 40.1585C52.2083 40.6779 51.9229 41.3685 51.9232 42.1029L51.9258 48.7793L47.4993 52.9469C46.4794 53.9071 46.2634 55.4756 46.9856 56.6764L47.596 57.6913C48.065 58.4706 48.8501 58.9889 49.7501 59.1132C50.5291 59.2211 51.3043 59.0212 51.9278 58.5618L51.9337 72.8693C51.9338 73.4387 52.1554 73.9739 52.5575 74.3762C52.9594 74.7786 53.4936 75 54.062 75C54.0622 75 54.0625 75 54.0627 75L71.0137 74.9968C71.0354 74.9968 78.513 74.9907 71.0779 74.9936L78.5132 74.9907C79.6866 74.9902 80.641 74.0337 80.6405 72.8586L80.6346 58.5512C81.2588 59.0101 82.0341 59.2095 82.8129 59.1011C83.7128 58.9763 84.4974 58.4575 84.9657 57.678L85.5759 56.6623C86.2975 55.4612 86.0805 53.8928 85.0598 52.9331ZM65.8675 46.3598C66.5607 46.115 67.1771 45.7158 67.7101 45.176C67.7167 45.232 67.721 45.2885 67.721 45.3464C67.721 46.1417 67.0749 46.7889 66.2807 46.7889C65.9535 46.7889 65.6525 46.6779 65.4105 46.493C65.5641 46.4556 65.717 46.4129 65.8675 46.3598ZM66.0004 29.1506C66.9664 31.8945 67.4499 34.4706 67.5531 36.6883C66.4574 36.1794 65.1197 36.357 64.1962 37.2266L59.743 41.4193C58.6667 40.2411 57.6627 38.7821 56.7792 37.1297C58.4611 36.2251 60.0197 35.0685 61.4076 33.6784C63.164 31.9194 64.5174 29.9078 65.4704 27.7596C65.6562 28.2146 65.8339 28.6779 66.0004 29.1506ZM54.9868 33.0395C53.2032 27.9727 53.0617 23.4764 53.9311 20.7584C55.5457 20.64 57.1266 19.9659 58.3585 18.7322C61.0838 16.0028 61.0838 11.5615 58.3585 8.83209C55.633 6.10254 51.1983 6.10254 48.4732 8.83209C45.7479 11.5616 45.7479 16.0028 48.4732 18.7322C49.3271 19.5874 50.3487 20.1744 51.4329 20.4937C51.2547 21.1583 51.1235 21.8823 51.0429 22.6618C50.7026 25.9479 51.2781 29.9248 52.6635 33.86C52.9114 34.564 53.181 35.252 53.4687 35.9218C51.5767 36.6226 49.5559 36.9894 47.4785 36.9894C44.6648 36.9894 41.9546 36.3175 39.5288 35.0516C39.5161 35.0444 39.5043 35.0358 39.4914 35.0291C38.5321 34.5264 37.6234 33.9336 36.7743 33.2582C36.7627 33.249 36.7511 33.2396 36.7396 33.2303C36.4211 32.9756 36.1113 32.7087 35.8102 32.4309C35.7791 32.4022 35.748 32.3732 35.7171 32.3443C35.5733 32.2097 35.4309 32.0735 35.2913 31.9337C35.1516 31.7937 35.0152 31.6509 34.8806 31.5066C34.8521 31.4759 34.8235 31.4453 34.7953 31.4145C34.5173 31.1124 34.2504 30.8015 33.9956 30.4819C33.9869 30.471 33.9781 30.4602 33.9696 30.4493C33.2948 29.5988 32.7028 28.6884 32.2007 27.7273C32.1938 27.7142 32.1852 27.7022 32.1779 27.6893C30.9141 25.26 30.2434 22.5459 30.2434 19.7281C30.2434 15.1175 32.0361 10.7828 35.2915 7.52266C38.5469 4.26254 42.8749 2.46696 47.4786 2.46696C52.0823 2.46696 56.4105 4.26237 59.6658 7.52266C66.3857 14.2528 66.3857 25.2033 59.6658 31.9335C58.4779 33.1232 57.1466 34.1168 55.7116 34.9004C55.4536 34.2967 55.2109 33.6758 54.9868 33.0395ZM52.3756 18.1919C51.5833 18.0058 50.8316 17.605 50.2152 16.9876C48.4505 15.2201 48.4505 12.3442 50.2152 10.5767C51.9799 8.80921 54.8516 8.80938 56.6165 10.5767C57.9783 11.9406 58.2881 13.9643 57.5482 15.6297C56.706 15.4945 55.8902 15.5586 55.12 15.8306C53.9921 16.2288 53.0661 17.0345 52.3756 18.1919ZM69.7817 72.527L63.6926 72.5292V60.4664C63.6926 60.3453 63.7911 60.2467 63.912 60.2467H69.5623C69.6832 60.2467 69.7817 60.3453 69.7817 60.4664V72.527Z" fill="#45BF75"/>
</svg>
