<svg width="284" height="166" viewBox="0 0 284 166" fill="none" xmlns="http://www.w3.org/2000/svg">
<g clip-path="url(#clip0_1059_7405)">
<path d="M258.304 11.0063H0V165.992H258.304V11.0063Z" fill="#FF666B"/>
<path d="M51.0179 10.1146H45.268V4.31179C45.268 1.92916 43.3564 0 40.9955 0C38.6346 0 36.723 1.92916 36.723 4.31179V10.1146H30.9731C28.6122 10.1146 26.7007 12.0438 26.7007 14.4264C26.7007 16.8091 28.6122 18.7382 30.9731 18.7382H36.723V24.5411C36.723 26.9237 38.6346 28.8529 40.9955 28.8529C43.3564 28.8529 45.268 26.9237 45.268 24.5411V18.7382H51.0179C53.3788 18.7382 55.2903 16.8091 55.2903 14.4264C55.2903 12.0438 53.3788 10.1146 51.0179 10.1146Z" fill="#212E45"/>
<path d="M108.197 10.1146H102.447V4.31179C102.447 1.92916 100.536 0 98.1747 0C95.8138 0 93.9023 1.92916 93.9023 4.31179V10.1146H88.1523C85.7914 10.1146 83.8799 12.0438 83.8799 14.4264C83.8799 16.8091 85.7914 18.7382 88.1523 18.7382H93.9023V24.5411C93.9023 26.9237 95.8138 28.8529 98.1747 28.8529C100.536 28.8529 102.447 26.9237 102.447 24.5411V18.7382H108.197C110.558 18.7382 112.47 16.8091 112.47 14.4264C112.47 12.0438 110.558 10.1146 108.197 10.1146Z" fill="#212E45"/>
<path d="M165.376 10.1146H159.626V4.31179C159.626 1.92916 157.715 0 155.354 0C152.993 0 151.081 1.92916 151.081 4.31179V10.1146H145.332C142.971 10.1146 141.059 12.0438 141.059 14.4264C141.059 16.8091 142.971 18.7382 145.332 18.7382H151.081V24.5411C151.081 26.9237 152.993 28.8529 155.354 28.8529C157.715 28.8529 159.626 26.9237 159.626 24.5411V18.7382H165.376C167.737 18.7382 169.649 16.8091 169.649 14.4264C169.649 12.0438 167.737 10.1146 165.376 10.1146Z" fill="#212E45"/>
<path d="M222.548 10.1146H216.798V4.31179C216.798 1.92916 214.887 0 212.526 0C210.165 0 208.253 1.92916 208.253 4.31179V10.1146H202.503C200.143 10.1146 198.231 12.0438 198.231 14.4264C198.231 16.8091 200.143 18.7382 202.503 18.7382H208.253V24.5411C208.253 26.9237 210.165 28.8529 212.526 28.8529C214.887 28.8529 216.798 26.9237 216.798 24.5411V18.7382H222.548C224.909 18.7382 226.821 16.8091 226.821 14.4264C226.821 12.0438 224.909 10.1146 222.548 10.1146Z" fill="#212E45"/>
<path d="M279.727 10.1146H273.977V4.31179C273.977 1.92916 272.066 0 269.705 0C267.344 0 265.433 1.92916 265.433 4.31179V10.1146H259.683C257.322 10.1146 255.41 12.0438 255.41 14.4264C255.41 16.8091 257.322 18.7382 259.683 18.7382H265.433V24.5411C265.433 26.9237 267.344 28.8529 269.705 28.8529C272.066 28.8529 273.977 26.9237 273.977 24.5411V18.7382H279.727C282.088 18.7382 284 16.8091 284 14.4264C284 12.0438 282.088 10.1146 279.727 10.1146Z" fill="#212E45"/>
<path d="M51.0179 67.8129H45.268V62.01C45.268 59.6274 43.3564 57.6982 40.9955 57.6982C38.6346 57.6982 36.723 59.6274 36.723 62.01V67.8129H30.9731C28.6122 67.8129 26.7007 69.742 26.7007 72.1247C26.7007 74.5073 28.6122 76.4365 30.9731 76.4365H36.723V82.2393C36.723 84.6219 38.6346 86.5511 40.9955 86.5511C43.3564 86.5511 45.268 84.6219 45.268 82.2393V76.4365H51.0179C53.3788 76.4365 55.2903 74.5073 55.2903 72.1247C55.2903 69.742 53.3788 67.8129 51.0179 67.8129Z" fill="#212E45"/>
<path d="M108.197 67.8129H102.447V62.01C102.447 59.6274 100.536 57.6982 98.1747 57.6982C95.8138 57.6982 93.9023 59.6274 93.9023 62.01V67.8129H88.1523C85.7914 67.8129 83.8799 69.742 83.8799 72.1247C83.8799 74.5073 85.7914 76.4365 88.1523 76.4365H93.9023V82.2393C93.9023 84.6219 95.8138 86.5511 98.1747 86.5511C100.536 86.5511 102.447 84.6219 102.447 82.2393V76.4365H108.197C110.558 76.4365 112.47 74.5073 112.47 72.1247C112.47 69.742 110.558 67.8129 108.197 67.8129Z" fill="#212E45"/>
<path d="M165.376 67.8129H159.626V62.01C159.626 59.6274 157.715 57.6982 155.354 57.6982C152.993 57.6982 151.081 59.6274 151.081 62.01V67.8129H145.332C142.971 67.8129 141.059 69.742 141.059 72.1247C141.059 74.5073 142.971 76.4365 145.332 76.4365H151.081V82.2393C151.081 84.6219 152.993 86.5511 155.354 86.5511C157.715 86.5511 159.626 84.6219 159.626 82.2393V76.4365H165.376C167.737 76.4365 169.649 74.5073 169.649 72.1247C169.649 69.742 167.737 67.8129 165.376 67.8129Z" fill="#212E45"/>
<path d="M222.548 67.8129H216.798V62.01C216.798 59.6274 214.887 57.6982 212.526 57.6982C210.165 57.6982 208.253 59.6274 208.253 62.01V67.8129H202.503C200.143 67.8129 198.231 69.742 198.231 72.1247C198.231 74.5073 200.143 76.4365 202.503 76.4365H208.253V82.2393C208.253 84.6219 210.165 86.5511 212.526 86.5511C214.887 86.5511 216.798 84.6219 216.798 82.2393V76.4365H222.548C224.909 76.4365 226.821 74.5073 226.821 72.1247C226.821 69.742 224.909 67.8129 222.548 67.8129Z" fill="#212E45"/>
<path d="M279.727 67.8129H273.977V62.01C273.977 59.6274 272.066 57.6982 269.705 57.6982C267.344 57.6982 265.433 59.6274 265.433 62.01V67.8129H259.683C257.322 67.8129 255.41 69.742 255.41 72.1247C255.41 74.5073 257.322 76.4365 259.683 76.4365H265.433V82.2393C265.433 84.6219 267.344 86.5511 269.705 86.5511C272.066 86.5511 273.977 84.6219 273.977 82.2393V76.4365H279.727C282.088 76.4365 284 74.5073 284 72.1247C284 69.742 282.088 67.8129 279.727 67.8129Z" fill="#212E45"/>
<path d="M51.0179 125.518H45.268V119.716C45.268 117.333 43.3564 115.404 40.9955 115.404C38.6346 115.404 36.723 117.333 36.723 119.716V125.518H30.9731C28.6122 125.518 26.7007 127.448 26.7007 129.83C26.7007 132.213 28.6122 134.142 30.9731 134.142H36.723V139.945C36.723 142.328 38.6346 144.257 40.9955 144.257C43.3564 144.257 45.268 142.328 45.268 139.945V134.142H51.0179C53.3788 134.142 55.2903 132.213 55.2903 129.83C55.2903 127.448 53.3788 125.518 51.0179 125.518Z" fill="#212E45"/>
<path d="M108.197 125.518H102.447V119.716C102.447 117.333 100.536 115.404 98.1747 115.404C95.8138 115.404 93.9023 117.333 93.9023 119.716V125.518H88.1523C85.7914 125.518 83.8799 127.448 83.8799 129.83C83.8799 132.213 85.7914 134.142 88.1523 134.142H93.9023V139.945C93.9023 142.328 95.8138 144.257 98.1747 144.257C100.536 144.257 102.447 142.328 102.447 139.945V134.142H108.197C110.558 134.142 112.47 132.213 112.47 129.83C112.47 127.448 110.558 125.518 108.197 125.518Z" fill="#212E45"/>
<path d="M165.376 125.518H159.626V119.716C159.626 117.333 157.715 115.404 155.354 115.404C152.993 115.404 151.081 117.333 151.081 119.716V125.518H145.332C142.971 125.518 141.059 127.448 141.059 129.83C141.059 132.213 142.971 134.142 145.332 134.142H151.081V139.945C151.081 142.328 152.993 144.257 155.354 144.257C157.715 144.257 159.626 142.328 159.626 139.945V134.142H165.376C167.737 134.142 169.649 132.213 169.649 129.83C169.649 127.448 167.737 125.518 165.376 125.518Z" fill="#212E45"/>
<path d="M222.548 125.518H216.798V119.716C216.798 117.333 214.887 115.404 212.526 115.404C210.165 115.404 208.253 117.333 208.253 119.716V125.518H202.503C200.143 125.518 198.231 127.448 198.231 129.83C198.231 132.213 200.143 134.142 202.503 134.142H208.253V139.945C208.253 142.328 210.165 144.257 212.526 144.257C214.887 144.257 216.798 142.328 216.798 139.945V134.142H222.548C224.909 134.142 226.821 132.213 226.821 129.83C226.821 127.448 224.909 125.518 222.548 125.518Z" fill="#212E45"/>
<path d="M279.727 125.518H273.977V119.716C273.977 117.333 272.066 115.404 269.705 115.404C267.344 115.404 265.433 117.333 265.433 119.716V125.518H259.683C257.322 125.518 255.41 127.448 255.41 129.83C255.41 132.213 257.322 134.142 259.683 134.142H265.433V139.945C265.433 142.328 267.344 144.257 269.705 144.257C272.066 144.257 273.977 142.328 273.977 139.945V134.142H279.727C282.088 134.142 284 132.213 284 129.83C284 127.448 282.088 125.518 279.727 125.518Z" fill="#212E45"/>
</g>
<defs>
<clipPath id="clip0_1059_7405">
<rect width="284" height="166" fill="white"/>
</clipPath>
</defs>
</svg>
