<svg width="180" height="467" viewBox="0 0 180 467" fill="none" xmlns="http://www.w3.org/2000/svg">
<path fill-rule="evenodd" clip-rule="evenodd" d="M451.95 3.95764C502.648 10.7807 519.776 78.6025 540.86 125.211C559.648 166.743 554.078 212.842 566.306 256.755C584.587 322.405 676.439 396.359 630.338 446.546C579.878 501.478 486.788 423.174 412.21 424.508C375.213 425.17 344.05 453.608 307.07 452.329C267.301 450.955 233.359 429.48 195.568 417.019C130.26 395.483 28.0519 416.85 4.04902 352.407C-19.1046 290.245 89.6273 252.091 110.711 189.197C130.582 129.922 63.6408 32.1641 120.277 5.6933C185.74 -24.9026 240.918 94.9468 313.176 94.5687C369.563 94.2736 396.066 -3.56326 451.95 3.95764Z" fill="#45BF75"/>
</svg>
