<svg width="147" height="636" viewBox="0 0 147 636" fill="none" xmlns="http://www.w3.org/2000/svg">
<path fill-rule="evenodd" clip-rule="evenodd" d="M119.283 475.763C108.616 525.793 39.6863 537.703 -8.3931 555.174C-51.2367 570.742 -96.7767 561.675 -141.495 570.521C-208.346 583.745 -289.085 669.695 -335.613 619.903C-386.54 565.404 -301.369 478.552 -297.016 404.088C-294.857 367.149 -320.837 333.91 -316.744 297.135C-312.342 257.586 -288.344 225.379 -273.039 188.648C-246.589 125.17 -260.104 21.6316 -194.02 2.60954C-130.274 -15.7395 -100.517 95.5838 -39.4125 121.4C18.1759 145.73 120.751 86.433 142.828 144.922C168.347 212.526 44.6407 258.41 39.5111 330.487C35.5082 386.732 131.041 420.615 119.283 475.763Z" fill="#45BF75"/>
</svg>
