<svg width="30" height="30" viewBox="0 0 30 30" fill="none" xmlns="http://www.w3.org/2000/svg">
<path fill-rule="evenodd" clip-rule="evenodd" d="M28.4998 12C29.3281 12 29.9995 11.3284 29.9995 10.5V1.5C29.9995 0.67158 29.3281 0 28.4998 0H19.4959C18.6676 0 17.9962 0.671565 17.9962 1.5C17.9962 2.32842 18.6676 3 19.4959 3H24.8794L11.9717 15.9099C11.386 16.4956 11.386 17.4454 11.9717 18.0312C12.5574 18.6171 13.5069 18.6171 14.0925 18.0312L27 5.12156V10.5C27 11.3284 27.6715 12 28.4998 12ZM4.49872 4.5C2.01388 4.5 -0.000488281 6.51473 -0.000488281 9V25.5C-0.000488281 27.9853 2.01388 30 4.49872 30H20.9958C23.4808 30 25.495 27.9853 25.495 25.5V16.5C25.495 15.6715 24.8236 15 23.9953 15C23.167 15 22.4956 15.6715 22.4956 16.5V25.5C22.4956 26.3284 21.8241 27 20.9958 27H4.49872C3.67045 27 2.99899 26.3284 2.99899 25.5V9C2.99899 8.17158 3.67045 7.5 4.49872 7.5H13.4971C14.3255 7.5 14.9969 6.82842 14.9969 6C14.9969 5.17158 14.3255 4.5 13.4971 4.5H4.49872Z" fill="white"/>
</svg>
