<svg width="45" height="40" viewBox="0 0 45 40" fill="none" xmlns="http://www.w3.org/2000/svg">
<path d="M7.48776 38.8771C4.69098 37.3337 2.77873 35.0497 0.671235 32.7107C0.154048 32.1353 0.176879 31.3427 0.830944 30.8748C2.94696 29.3653 5.08048 27.8778 7.1965 26.3683C8.40861 25.5029 9.63773 27.4603 8.42838 28.3226C7.04955 29.3061 5.66307 30.2818 4.27974 31.2602C4.36033 31.2637 4.44446 31.276 4.53165 31.2988C9.63963 32.6126 16.6823 32.6208 19.3904 27.1387C19.5503 26.8163 19.6877 26.4763 19.8079 26.1279C18.2802 25.2533 16.9349 24.0524 15.8407 22.6775C14.7029 21.2465 13.8011 18.9948 15.4105 17.5301C16.6968 16.3587 18.6639 16.8145 19.9292 17.7725C21.3033 18.8115 22.1305 20.5022 22.4145 22.1775C22.562 23.0536 22.5699 23.9438 22.4627 24.8215C24.3897 25.52 26.5085 25.5811 28.4585 24.7216C30.1388 23.9805 31.4783 22.6127 32.0394 20.9713C30.7551 20.6356 29.5409 20.0241 28.3866 19.3172C26.8845 18.3967 25.0352 17.1634 24.7863 15.2499C24.5367 13.3167 26.1631 11.9655 27.9782 11.8965C29.8307 11.8257 31.5968 12.8425 32.7647 14.2249C33.9151 15.5852 34.5192 17.2312 34.596 18.8972C34.8618 18.8751 35.1283 18.8357 35.3982 18.7758C38.521 18.0845 40.9806 15.4241 41.8061 12.3851C42.8056 8.70997 41.8689 4.86173 40.3356 1.48469C39.7234 0.136534 41.9359 -0.53169 42.544 0.809569C44.4287 4.95824 45.2889 9.78958 43.6357 14.1684C42.2354 17.8771 38.7101 20.8355 34.7287 21.2108C34.6015 21.2223 34.477 21.2307 34.3517 21.2349C34.016 22.534 33.3477 23.7617 32.3497 24.7805C29.6001 27.5852 25.5316 28.2864 21.9164 27.0823C21.1548 29.1718 19.7294 31.0313 17.8797 32.2346C13.984 34.7689 9.06662 34.7378 4.68037 33.7217C5.82136 34.9101 7.04142 35.9965 8.5428 36.8233C9.84364 37.5413 8.78173 39.599 7.48088 38.8811L7.48776 38.8771ZM30.074 14.8519C29.368 14.3751 26.2591 13.6248 27.2777 15.4298C27.9759 16.6641 29.7503 17.5156 30.9455 18.1104C31.3853 18.3286 31.8346 18.5104 32.2886 18.6446C32.2523 18.3527 32.1938 18.0569 32.1066 17.7595C31.7677 16.6133 31.0733 15.528 30.074 14.8519ZM19.3307 20.4851C18.9889 19.9887 17.0896 18.2339 16.8323 19.6041C16.5901 20.8945 19.0911 22.8416 19.9629 23.4785C20.0542 23.5452 20.1505 23.6074 20.2422 23.6723C20.2498 22.5446 19.9821 21.4306 19.3307 20.4851ZM3.25049 31.9904C3.22202 32.0102 3.19355 32.03 3.1646 32.0517C3.18125 32.0696 3.19742 32.0895 3.21406 32.1074C3.22455 32.0673 3.23456 32.029 3.25049 31.9904Z" fill="#018ABD" fill-opacity="0.1"/>
</svg>
