<svg width="171" height="411" viewBox="0 0 171 411" fill="none" xmlns="http://www.w3.org/2000/svg">
<path fill-rule="evenodd" clip-rule="evenodd" d="M451.949 3.95764C502.647 10.7807 519.775 78.6025 540.859 125.211C559.647 166.743 554.077 212.842 566.305 256.755C584.586 322.405 676.438 396.359 630.337 446.546C579.877 501.478 486.787 423.174 412.209 424.508C375.212 425.17 344.049 453.608 307.069 452.329C267.3 450.955 233.358 429.48 195.567 417.019C130.259 395.483 28.0509 416.85 4.04805 352.407C-19.1056 290.245 89.6263 252.091 110.71 189.197C130.581 129.922 63.6398 32.1641 120.276 5.6933C185.739 -24.9026 240.917 94.9468 313.175 94.5687C369.562 94.2736 396.065 -3.56326 451.949 3.95764Z" fill="#F7F2EC"/>
</svg>
