<svg width="215" height="536" viewBox="0 0 215 536" fill="none" xmlns="http://www.w3.org/2000/svg">
<path fill-rule="evenodd" clip-rule="evenodd" d="M96.8632 495.281C72.3198 540.164 2.8654 531.841 -48.2032 534.816C-93.7104 537.467 -134.749 515.742 -180.127 511.416C-247.967 504.948 -349.933 564.185 -380.258 503.157C-413.45 436.359 -306.98 377.526 -281.492 307.425C-268.847 272.651 -284.224 233.364 -269.774 199.3C-254.235 162.667 -222.02 138.679 -196.839 107.867C-153.324 54.6187 -136.632 -48.4557 -67.8676 -47.7624C-1.53649 -47.0936 -4.89639 68.0889 46.2601 110.318C94.4728 150.116 209.73 122.668 214.139 185.029C219.235 257.109 87.5708 265.657 62.021 333.249C42.0833 385.994 123.917 445.808 96.8632 495.281Z" fill="#F7F2EC"/>
</svg>
