<svg width="34" height="34" viewBox="0 0 34 34" fill="none" xmlns="http://www.w3.org/2000/svg">
<path d="M32.1554 30.51H29.9621V13.2035L30.3283 13.4124C30.5225 13.5234 30.7372 13.5936 30.9594 13.6188C31.1816 13.6439 31.4066 13.6235 31.6207 13.5588C31.8347 13.4941 32.0334 13.3864 32.2044 13.2424C32.3754 13.0983 32.5153 12.9209 32.6154 12.7209L32.7306 12.4917C32.9185 12.1153 32.955 11.6811 32.8326 11.2785C32.7102 10.876 32.4383 10.5356 32.0726 10.3275L29.9621 9.12003V4.08907C30.3276 3.96031 30.6358 3.70633 30.8321 3.37211C31.0283 3.03789 31.0999 2.645 31.0343 2.26303C30.9686 1.88105 30.7698 1.53465 30.4732 1.28517C30.1766 1.03569 29.8013 0.899233 29.4137 0.899967H25.0271C24.6401 0.899115 24.2654 1.03499 23.9689 1.28361C23.6724 1.53223 23.4733 1.87759 23.4068 2.25874C23.3402 2.63989 23.4104 3.0323 23.605 3.3667C23.7997 3.70109 24.1062 3.95597 24.4705 4.08633V5.98247L18.1663 2.38047C17.9177 2.23894 17.6365 2.16452 17.3504 2.16452C17.0643 2.16452 16.7831 2.23894 16.5345 2.38047L2.62545 10.3275C2.26022 10.5362 1.98882 10.8769 1.86705 11.2795C1.74528 11.6822 1.78238 12.1162 1.97074 12.4923L2.08479 12.7204C2.18489 12.9205 2.32474 13.098 2.4958 13.2422C2.66685 13.3863 2.86552 13.4941 3.07964 13.5589C3.29377 13.6236 3.51885 13.6441 3.74114 13.6189C3.96342 13.5937 4.17823 13.5234 4.37244 13.4124L4.73872 13.2035V30.51H2.54539C2.10911 30.51 1.6907 30.6833 1.3822 30.9918C1.0737 31.3003 0.900391 31.7187 0.900391 32.155C0.900391 32.5912 1.0737 33.0097 1.3822 33.3182C1.6907 33.6267 2.10911 33.8 2.54539 33.8H32.1554C32.5917 33.8 33.0101 33.6267 33.3186 33.3182C33.6271 33.0097 33.8004 32.5912 33.8004 32.155C33.8004 31.7187 33.6271 31.3003 33.3186 30.9918C33.0101 30.6833 32.5917 30.51 32.1554 30.51ZM25.0271 1.99663H29.4137C29.5592 1.99663 29.6986 2.0544 29.8015 2.15724C29.9043 2.26007 29.9621 2.39954 29.9621 2.54497C29.9621 2.69039 29.9043 2.82986 29.8015 2.9327C29.6986 3.03553 29.5592 3.0933 29.4137 3.0933H25.0271C24.8816 3.0933 24.7422 3.03553 24.6393 2.9327C24.5365 2.82986 24.4787 2.69039 24.4787 2.54497C24.4787 2.39954 24.5365 2.26007 24.6393 2.15724C24.7422 2.0544 24.8816 1.99663 25.0271 1.99663ZM25.5672 4.18997H28.8654V8.49384L25.5672 6.60921V4.18997ZM3.82849 12.4605C3.76368 12.4976 3.69197 12.5211 3.61777 12.5295C3.54356 12.5379 3.46842 12.531 3.39695 12.5094C3.32548 12.4877 3.25919 12.4517 3.20215 12.4035C3.1451 12.3553 3.0985 12.2959 3.06521 12.2291L2.95116 12.001C2.88863 11.8755 2.87651 11.7309 2.91731 11.5968C2.9581 11.4627 3.0487 11.3493 3.17049 11.2799L17.0762 3.33237C17.1592 3.28548 17.2529 3.26083 17.3482 3.26083C17.4435 3.26083 17.5372 3.28548 17.6202 3.33237L31.5308 11.2799C31.6525 11.3493 31.743 11.4626 31.7838 11.5966C31.8246 11.7305 31.8125 11.875 31.7502 12.0004L31.635 12.2296C31.6018 12.2965 31.5553 12.3558 31.4982 12.4039C31.4411 12.452 31.3748 12.4879 31.3033 12.5093C31.232 12.5316 31.1568 12.5388 31.0826 12.5303C31.0084 12.5219 30.9368 12.4981 30.8723 12.4605L18.1663 5.2C17.9177 5.05842 17.6365 4.98397 17.3504 4.98397C17.0643 4.98397 16.7831 5.05842 16.5345 5.2L3.82849 12.4605ZM5.83539 12.5795L17.0762 6.1519C17.1592 6.10501 17.2529 6.08036 17.3482 6.08036C17.4435 6.08036 17.5372 6.10501 17.6202 6.1519L28.8654 12.5795V30.51H5.83539V12.5795ZM32.1554 32.7033H2.54539C2.39996 32.7033 2.26049 32.6455 2.15766 32.5427C2.05483 32.4399 1.99706 32.3004 1.99706 32.155C1.99706 32.0095 2.05483 31.8701 2.15766 31.7672C2.26049 31.6644 2.39996 31.6066 2.54539 31.6066H32.1554C32.3008 31.6066 32.4403 31.6644 32.5431 31.7672C32.646 31.8701 32.7037 32.0095 32.7037 32.155C32.7037 32.3004 32.646 32.4399 32.5431 32.5427C32.4403 32.6455 32.3008 32.7033 32.1554 32.7033Z" fill="#018ABD"/>
<path d="M6.93188 28.3166H9.12522V29.4133H6.93188V28.3166Z" fill="#018ABD"/>
<path d="M25.5752 28.3167H27.7685V29.4133H25.5752V28.3167Z" fill="#018ABD"/>
<path d="M10.2217 28.3166H11.3183V29.4133H10.2217V28.3166Z" fill="#018ABD"/>
<path d="M23.3816 28.3166H24.4783V29.4133H23.3816V28.3166Z" fill="#018ABD"/>
<path d="M26.6717 18.995C26.6717 17.1513 26.125 15.349 25.1007 13.8161C24.0764 12.2832 22.6206 11.0884 20.9172 10.3829C19.2139 9.67732 17.3397 9.49272 15.5314 9.8524C13.7232 10.2121 12.0622 11.0999 10.7586 12.4035C9.45492 13.7072 8.56712 15.3682 8.20744 17.1764C7.84776 18.9846 8.03236 20.8589 8.73789 22.5622C9.44343 24.2655 10.6382 25.7214 12.1712 26.7456C13.7041 27.7699 15.5063 28.3166 17.35 28.3166C19.8214 28.3139 22.1908 27.3309 23.9384 25.5833C25.6859 23.8358 26.6689 21.4664 26.6717 18.995ZM23.1234 24.8446C22.3991 24.2701 21.5931 23.8069 20.7321 23.4704C21.0013 22.1779 21.1507 20.8633 21.1785 19.5433H25.547C25.4162 21.5477 24.5537 23.4343 23.1234 24.8446ZM15.2795 24.1992C16.6365 23.8402 18.0635 23.8402 19.4205 24.1992C18.8798 26.0685 18.0902 27.2199 17.35 27.2199C16.6097 27.2199 15.8201 26.0685 15.2795 24.1992ZM15.2795 26.9458C14.247 26.677 13.2771 26.2089 12.4243 25.5678C12.9817 25.1522 13.5898 24.8093 14.2338 24.5474C14.4625 25.3942 14.8155 26.2024 15.2811 26.9458H15.2795ZM17.35 10.7699C18.0902 10.7699 18.8798 11.9242 19.4205 13.7907C18.0635 14.1497 16.6365 14.1497 15.2795 13.7907C15.8201 11.9242 16.6097 10.7699 17.35 10.7699ZM14.236 13.4425C13.592 13.1806 12.9839 12.8377 12.4265 12.4221C13.2791 11.7811 14.2489 11.313 15.2811 11.0441C14.8162 11.7876 14.464 12.5958 14.236 13.4425ZM19.4189 11.0441C20.4513 11.3129 21.4212 11.781 22.274 12.4221C21.7166 12.8377 21.1086 13.1806 20.4645 13.4425C20.2363 12.5958 19.8839 11.7876 19.4189 11.0441ZM17.35 15.1566C18.1375 15.1547 18.9216 15.0532 19.6837 14.8545C19.9242 16.0374 20.0572 17.2397 20.0812 18.4466H14.6187C14.6428 17.2397 14.7758 16.0374 15.0163 14.8545C15.7783 15.0532 16.5625 15.1547 17.35 15.1566ZM20.0812 19.5433C20.0572 20.7502 19.9242 21.9525 19.6837 23.1354C18.154 22.7326 16.546 22.7326 15.0163 23.1354C14.7758 21.9525 14.6428 20.7502 14.6187 19.5433H20.0812ZM20.4651 24.5474C21.1091 24.8093 21.7172 25.1522 22.2746 25.5678C21.4216 26.2089 20.4515 26.677 19.4189 26.9458C19.8837 26.2023 20.2359 25.3941 20.464 24.5474H20.4651ZM25.547 18.4466H21.1785C21.1507 17.1266 21.0013 15.812 20.7321 14.5195C21.5931 14.183 22.3991 13.7198 23.1234 13.1453C24.5537 14.5556 25.4162 16.4422 25.547 18.4466ZM11.5766 13.1453C12.3009 13.7198 13.1068 14.183 13.9679 14.5195C13.6987 15.812 13.5493 17.1266 13.5215 18.4466H9.15296C9.28377 16.4422 10.1463 14.5556 11.5766 13.1453ZM9.15296 19.5433H13.5215C13.5493 20.8633 13.6987 22.1779 13.9679 23.4704C13.1068 23.8069 12.3009 24.2701 11.5766 24.8446C10.1463 23.4343 9.28377 21.5477 9.15296 19.5433Z" fill="#018ABD"/>
</svg>
