<svg width="34" height="34" viewBox="0 0 34 34" fill="none" xmlns="http://www.w3.org/2000/svg">
<path d="M31.4672 18.9561L26.7322 16.9826V15.5658C27.384 15.1917 27.9484 14.6828 28.3876 14.0731C28.8269 13.4633 29.1309 12.7668 29.2793 12.0301H29.3854C29.8076 12.0359 30.2148 11.8737 30.5175 11.5792C30.8201 11.2848 30.9934 10.8822 30.9991 10.4599C31.0049 10.0377 30.8427 9.63053 30.5482 9.32791C30.2538 9.02528 29.8512 8.85202 29.4289 8.84625L29.949 7.64063C30.3933 6.61041 30.416 5.44704 30.0122 4.40025C29.6085 3.35347 28.8103 2.50673 27.7893 2.04179L26.3077 1.36787C25.431 0.978652 24.467 0.828227 23.5135 0.931859C22.5599 1.03549 21.6507 1.38949 20.8781 1.95795L20.0524 2.58093C19.2094 2.79806 18.4853 3.33751 18.036 4.08318C17.7879 4.4951 17.633 4.9564 17.5824 5.43461C17.5318 5.91281 17.5867 6.3963 17.7431 6.85103C16.942 6.69079 16.1152 6.71091 15.3228 6.90993C15.5496 5.94714 15.4352 4.93547 14.999 4.04769C14.5628 3.15991 13.8319 2.45111 12.9312 2.04232L11.4496 1.36787C10.573 0.978652 9.60896 0.828227 8.6554 0.931859C7.70184 1.03549 6.79265 1.38949 6.02007 1.95795L5.19439 2.58093C4.71616 2.70313 4.27137 2.93086 3.89265 3.24742C3.51394 3.56398 3.21091 3.96132 3.00582 4.41029C2.80072 4.85925 2.69877 5.34844 2.70743 5.84196C2.7161 6.33548 2.83516 6.82079 3.05589 7.26228L3.84867 8.84625C3.42646 8.85498 3.02501 9.03107 2.73264 9.33578C2.44026 9.6405 2.28091 10.0489 2.28964 10.4711C2.29836 10.8933 2.47445 11.2947 2.77917 11.5871C3.08388 11.8795 3.49226 12.0388 3.91447 12.0301H4.0206C4.16962 12.7664 4.47387 13.4626 4.91308 14.072C5.35229 14.6815 5.91636 15.1904 6.5677 15.5648V16.9826L1.83275 18.9561C1.34872 19.1568 0.935153 19.4967 0.644474 19.9326C0.353796 20.3686 0.199087 20.881 0.199955 21.405V28.4801C0.199955 28.6209 0.255862 28.7558 0.355377 28.8553C0.454892 28.9549 0.589864 29.0108 0.7306 29.0108H4.44512V33.2559C4.44512 33.3967 4.50102 33.5316 4.60054 33.6311C4.70005 33.7307 4.83502 33.7866 4.97576 33.7866H28.3241C28.4649 33.7866 28.5999 33.7307 28.6994 33.6311C28.7989 33.5316 28.8548 33.3967 28.8548 33.2559V29.0108H32.5693C32.71 29.0108 32.845 28.9549 32.9445 28.8553C33.044 28.7558 33.0999 28.6209 33.0999 28.4801V21.405C33.1008 20.881 32.9461 20.3686 32.6554 19.9326C32.3648 19.4967 31.9512 19.1568 31.4672 18.9561ZM18.4398 8.17074L19.9208 8.84625C20.689 9.19621 21.2894 9.83339 21.5931 10.621C21.8968 11.4087 21.8796 12.284 21.5452 13.059L21.386 13.4225L20.842 12.3236C20.8074 12.2536 20.7577 12.1921 20.6965 12.1436C20.6353 12.095 20.5642 12.0605 20.4881 12.0426C20.4121 12.0248 20.3331 12.0239 20.2566 12.04C20.1802 12.0562 20.1083 12.0891 20.0461 12.1363L19.197 12.773C18.4622 13.3241 17.5685 13.6221 16.65 13.6221C15.7314 13.6221 14.8377 13.3241 14.1029 12.773L13.2538 12.1363C13.1919 12.0893 13.1203 12.0568 13.0442 12.0409C12.9681 12.025 12.8895 12.0262 12.8139 12.0445C12.7381 12.0622 12.6672 12.0964 12.6061 12.1447C12.5451 12.1929 12.4953 12.254 12.4605 12.3236L11.8741 13.5005L11.4358 12.6244C11.2648 12.2824 11.1841 11.9024 11.2012 11.5204C11.2184 11.1384 11.3329 10.7671 11.5338 10.4417C11.7348 10.1164 12.0155 9.84781 12.3494 9.66145C12.6833 9.47509 13.0593 9.37714 13.4417 9.3769C13.8505 9.37651 14.253 9.47722 14.6134 9.67007C14.9738 9.86293 15.281 10.1419 15.5075 10.4822L15.6741 10.7327L16.5571 10.1437L16.3905 9.89375C15.9188 9.18709 15.2085 8.67395 14.3894 8.44827C14.9913 8.07679 15.6746 7.85741 16.3803 7.80906C17.086 7.7607 17.7928 7.88484 18.4398 8.17074ZM21.9564 15.7446H22.487C22.6278 15.7446 22.7628 15.8005 22.8623 15.9001C22.9618 15.9996 23.0177 16.1345 23.0177 16.2753C23.0177 16.416 22.9618 16.551 22.8623 16.6505C22.7628 16.75 22.6278 16.8059 22.487 16.8059H21.9564V15.7446ZM15.058 21.8678C16.0942 22.1939 17.2057 22.1939 18.2419 21.8678V22.954L16.65 24.5459L15.058 22.954V21.8678ZM16.65 21.0511C15.5245 21.0498 14.4454 20.6022 13.6496 19.8063C12.8537 19.0105 12.4061 17.9314 12.4048 16.8059V14.8086L13.1254 13.3668L13.4661 13.6221C14.3846 14.311 15.5018 14.6833 16.65 14.6833C17.7981 14.6833 18.9153 14.311 19.8338 13.6221L20.1745 13.3668L20.8951 14.8086V16.8059C20.8938 17.9314 20.4462 19.0105 19.6503 19.8063C18.8545 20.6022 17.7755 21.0498 16.65 21.0511ZM11.3435 16.8059H10.8129C10.6721 16.8059 10.5371 16.75 10.4376 16.6505C10.3381 16.551 10.2822 16.416 10.2822 16.2753C10.2822 16.1345 10.3381 15.9996 10.4376 15.9001C10.5371 15.8005 10.6721 15.7446 10.8129 15.7446H11.3435V16.8059ZM4.44512 27.4401V27.9495H1.26125V21.405C1.26105 21.0909 1.35401 20.7837 1.52837 20.5223C1.70273 20.261 1.95066 20.0572 2.24082 19.9367L7.30264 17.828C7.39955 17.7875 7.48229 17.7193 7.54038 17.6318C7.59847 17.5443 7.62931 17.4416 7.62899 17.3366V15.248C7.62618 15.1474 7.59612 15.0495 7.542 14.9648C7.48788 14.88 7.41175 14.8115 7.32174 14.7667C6.68738 14.4511 6.14248 13.9812 5.7371 13.4001C5.33172 12.819 5.07887 12.1454 5.00176 11.4411C4.98739 11.3113 4.92563 11.1913 4.82831 11.1041C4.73098 11.017 4.60494 10.9688 4.4743 10.9688H3.91447C3.77373 10.9688 3.63876 10.9129 3.53925 10.8134C3.43973 10.7139 3.38383 10.5789 3.38383 10.4382C3.38383 10.2975 3.43973 10.1625 3.53925 10.063C3.63876 9.96345 3.77373 9.90754 3.91447 9.90754H4.44512C4.51511 9.90755 4.58442 9.8937 4.64905 9.8668C4.71367 9.8399 4.77233 9.80048 4.82166 9.75081C4.87098 9.70114 4.90999 9.64221 4.93644 9.5774C4.96289 9.51259 4.97625 9.44318 4.97576 9.37319L4.97205 8.84254C4.97155 8.76148 4.95249 8.68161 4.91633 8.60906L4.00521 6.78735C3.85259 6.48151 3.77187 6.14483 3.76921 5.80303C3.76655 5.46123 3.84202 5.12334 3.98987 4.81515C4.13772 4.50697 4.35402 4.23664 4.62228 4.02481C4.89054 3.81297 5.20365 3.66524 5.53771 3.59287C5.61281 3.57623 5.68353 3.54386 5.7452 3.49788L6.65791 2.80804C7.27723 2.35284 8.00587 2.06941 8.77001 1.98647C9.53414 1.90354 10.3066 2.02404 11.0092 2.33577L12.4918 3.00916C13.26 3.35911 13.8604 3.99629 14.1641 4.78393C14.4678 5.57156 14.4505 6.44687 14.1161 7.22195L14.0302 7.42094C13.8287 7.53251 13.6349 7.65749 13.4502 7.79505L12.6133 8.42174C12.1361 8.54435 11.6923 8.77225 11.3146 9.08872C10.9369 9.40518 10.6349 9.80219 10.4306 10.2506C10.2263 10.699 10.125 11.1875 10.1342 11.6802C10.1433 12.1728 10.2626 12.6572 10.4833 13.0978L11.2772 14.6833H10.8129C10.3906 14.6833 9.98573 14.8511 9.68719 15.1496C9.38864 15.4482 9.22092 15.8531 9.22092 16.2753C9.22092 16.6975 9.38864 17.1024 9.68719 17.401C9.98573 17.6995 10.3906 17.8672 10.8129 17.8672H11.4496C11.6016 18.6015 11.9071 19.2953 12.3461 19.9031C12.785 20.511 13.3475 21.0192 13.9967 21.3944V22.7704L6.38834 24.8839C5.83024 25.0402 5.33843 25.3744 4.98768 25.8358C4.63693 26.2972 4.44642 26.8605 4.44512 27.4401ZM27.7935 32.7253H24.6096V28.4801H23.5483V32.7253H9.75157V28.4801H8.69028V32.7253H5.50641V27.4401C5.50718 27.0921 5.62166 26.754 5.83242 26.4771C6.04317 26.2002 6.33864 25.9999 6.67382 25.9065L14.373 23.768L16.2764 25.6714C16.3759 25.7709 16.5108 25.8268 16.6515 25.8268C16.7923 25.8268 16.9272 25.7709 17.0267 25.6714L18.9301 23.768L26.6261 25.9065C26.9613 25.9999 27.2567 26.2002 27.4675 26.4771C27.6782 26.754 27.7927 27.0921 27.7935 27.4401V32.7253ZM32.0387 27.9495H28.8548V27.4401C28.8535 26.8605 28.663 26.2972 28.3122 25.8358C27.9615 25.3744 27.4697 25.0402 26.9116 24.8839L19.3032 22.7704V21.3944C19.9524 21.0192 20.5149 20.511 20.9538 19.9031C21.3928 19.2953 21.6983 18.6015 21.8503 17.8672H22.487C22.9093 17.8672 23.3142 17.6995 23.6127 17.401C23.9113 17.1024 24.079 16.6975 24.079 16.2753C24.079 15.8531 23.9113 15.4482 23.6127 15.1496C23.3142 14.8511 22.9093 14.6833 22.487 14.6833H21.9999L22.5199 13.4783C22.9643 12.448 22.987 11.2847 22.5832 10.2379C22.1794 9.1911 21.3813 8.34435 20.3602 7.87942L19.1291 7.31853L18.8638 6.78788C18.7111 6.48205 18.6303 6.14536 18.6275 5.80353C18.6248 5.46169 18.7002 5.12375 18.848 4.81551C18.9958 4.50726 19.2121 4.23687 19.4803 4.02497C19.7486 3.81308 20.0617 3.66528 20.3958 3.59287C20.4709 3.57623 20.5416 3.54386 20.6033 3.49788L21.516 2.80804C22.1353 2.35284 22.8639 2.06941 23.6281 1.98647C24.3922 1.90354 25.1647 2.02404 25.8673 2.33577L27.3499 3.00916C28.1181 3.35911 28.7185 3.99629 29.0221 4.78393C29.3258 5.57156 29.3086 6.44687 28.9742 7.22195L28.3639 8.634C28.335 8.701 28.3202 8.77326 28.3204 8.84625L28.3241 9.3769C28.3241 9.51764 28.3801 9.65261 28.4796 9.75212C28.5791 9.85164 28.7141 9.90754 28.8548 9.90754H29.3854C29.5262 9.90754 29.6611 9.96345 29.7607 10.063C29.8602 10.1625 29.9161 10.2975 29.9161 10.4382C29.9161 10.5789 29.8602 10.7139 29.7607 10.8134C29.6611 10.9129 29.5262 10.9688 29.3854 10.9688H28.8256C28.695 10.9688 28.5689 11.017 28.4716 11.1041C28.3743 11.1913 28.3125 11.3113 28.2981 11.4411C28.2208 12.1481 27.9662 12.8241 27.5581 13.4065C27.1499 13.989 26.6014 14.459 25.9633 14.773C25.8749 14.817 25.8005 14.8847 25.7485 14.9686C25.6964 15.0525 25.6688 15.1492 25.6688 15.248V17.3366C25.6688 17.4413 25.6998 17.5437 25.7578 17.6309C25.8159 17.718 25.8985 17.786 25.9951 17.8264L31.0591 19.9367C31.3492 20.0572 31.5972 20.261 31.7715 20.5223C31.9459 20.7837 32.0389 21.0909 32.0387 21.405V27.9495Z" fill="#018ABD"/>
</svg>
