<svg width="45" height="67" viewBox="0 0 45 67" fill="none" xmlns="http://www.w3.org/2000/svg">
<path d="M44.0218 54.0929C43.4817 54.0929 43.0438 54.5307 43.0438 55.0708V64.2654C43.0438 64.5631 42.8016 64.8053 42.5039 64.8053H37.2468V45.5466C37.2468 45.0065 36.8089 44.5687 36.2688 44.5687C35.7288 44.5687 35.2909 45.0065 35.2909 45.5466V64.8055H24.7049L27.7747 61.4283C28.1101 61.0593 28.2683 60.5337 28.1977 60.0217C28.1964 60.0118 28.1949 60.0019 28.1932 59.992L25.2694 42.7192L26.0571 41.5334C26.4926 41.8426 26.8281 42.1405 27.4572 42.1405C28.0972 42.1405 28.6956 41.7823 28.99 41.1926V41.1925L32.0738 35.0118L39.0989 37.7325C39.353 37.8415 43.0436 39.5035 43.0436 43.892V50.5069C43.0434 51.0469 43.4813 51.4849 44.0215 51.4849C44.5616 51.4849 44.9995 51.047 44.9995 50.5069V43.892C44.9995 38.1099 40.0486 36.0081 39.8378 35.9213C39.8317 35.9187 39.8255 35.9163 39.8192 35.9139L28.1271 31.3859V28.6437C29.9841 27.1994 31.2718 25.0585 31.595 22.616C32.5209 22.5508 33.3801 22.205 34.0818 21.6017C34.998 20.8137 35.5238 19.6669 35.5238 18.4558C35.5238 17.4507 35.1612 16.491 34.5149 15.7432V12.1205C34.5148 5.43728 29.0776 0 22.3944 0C15.7113 0 10.2741 5.43728 10.2741 12.1205V15.8381C9.62096 16.5784 9.26577 17.4896 9.26577 18.4556C9.26577 19.6671 9.79125 20.8138 10.7078 21.6019C11.4089 22.205 12.2676 22.5504 13.1932 22.6157C13.5191 25.104 14.8443 27.3248 16.8595 28.7884V31.3859L5.18002 35.9138C5.17389 35.9161 5.16776 35.9186 5.16163 35.9211C4.95078 36.0078 0 38.1096 0 43.8918V64.2651C0 65.6414 1.11969 66.7611 2.49599 66.7611H11.8135C12.3536 66.7611 12.7915 66.3233 12.7915 65.7832C12.7915 65.2431 12.3536 64.8052 11.8135 64.8052H9.70937V45.5466C9.70937 45.0065 9.2715 44.5687 8.73141 44.5687C8.19132 44.5687 7.75346 45.0065 7.75346 45.5466V64.8055H2.49612C2.19844 64.8055 1.95616 64.5632 1.95616 64.2655V43.8919C1.95616 39.4887 5.67147 37.8304 5.89966 37.7329L12.9193 35.0116L16.0033 41.1925C16.2984 41.7836 16.8976 42.1405 17.5362 42.1405C18.1623 42.1405 18.4945 41.8472 18.9364 41.5334L19.7241 42.7192L16.8006 59.9921C16.7989 60.0019 16.7974 60.0117 16.796 60.0216C16.7253 60.5333 16.8835 61.0591 17.219 61.4284L20.2889 64.8056H16.3777C15.8376 64.8056 15.3997 65.2435 15.3997 65.7836C15.3997 66.3237 15.8376 66.7615 16.3777 66.7615H42.504C43.8803 66.7615 45 65.6417 45 64.2655V55.0709C44.9997 54.5307 44.5619 54.0929 44.0218 54.0929ZM30.2419 34.3025L27.3669 40.0646C27.2954 40.0139 25.7718 38.9313 23.9092 37.6088C24.7174 36.6111 23.7719 37.7781 27.4605 33.2253L30.2419 34.3025ZM24.4613 40.4002L23.7157 41.5225H21.277L20.5314 40.4002L22.4964 39.0046L24.4613 40.4002ZM18.8153 31.7014V29.8712C20.0034 30.3501 21.2732 30.5722 22.5132 30.5722C23.7954 30.5722 25.0528 30.2989 26.171 29.8099V31.7094L22.4964 36.2451L18.8153 31.7014ZM33.5677 18.4558C33.5676 19.0964 33.2901 19.7026 32.8064 20.1187C32.4865 20.3938 32.1002 20.5697 31.677 20.6386V16.2734C32.801 16.4559 33.5677 17.3882 33.5677 18.4558ZM13.1124 20.6386C11.9756 20.4541 11.2217 19.5142 11.2217 18.4556C11.2217 17.4102 12.0884 16.5592 13.1124 16.3225V20.6386ZM13.1649 14.3297C12.8534 14.3655 12.4964 14.4498 12.2303 14.5403V12.1205C12.2303 6.51577 16.7899 1.95603 22.3946 1.95603C27.9993 1.95603 32.5589 6.51577 32.5589 12.1205V14.4732C32.2746 14.3867 31.9798 14.3296 31.6772 14.3027C31.6772 13.3591 31.6854 13.5411 28.5983 10.2222C28.0306 9.61222 27.0915 9.48444 26.3768 9.95138C22.9696 12.1771 18.8133 13.2952 14.9784 13.0198C14.1373 12.9568 13.3711 13.5109 13.1649 14.3297ZM15.0684 21.4085V15.3072V14.9857C19.2899 15.233 23.7159 13.9788 27.2914 11.689C28.7072 13.2091 29.4739 14.0065 29.7211 14.3098C29.7211 15.077 29.7211 20.5302 29.7211 21.4084C29.7211 25.3785 26.484 28.616 22.5134 28.616C18.0547 28.6162 15.0684 25.1574 15.0684 21.4085ZM17.6261 40.0646L14.751 34.3025L17.5275 33.2272L21.0796 37.6116C19.2732 38.8943 17.79 39.9482 17.6261 40.0646ZM18.7481 60.203L21.5788 43.4783H23.4136L26.2443 60.203L22.4963 64.3264L18.7481 60.203Z" fill="#018ABD"/>
</svg>
