<svg width="215" height="584" viewBox="0 0 215 584" fill="none" xmlns="http://www.w3.org/2000/svg">
<path fill-rule="evenodd" clip-rule="evenodd" d="M96.8637 543.282C72.3203 588.164 2.86589 579.842 -48.2027 582.817C-93.7099 585.467 -134.748 563.743 -180.127 559.416C-247.966 552.948 -349.932 612.186 -380.257 551.158C-413.45 484.36 -306.98 425.526 -281.491 355.426C-268.847 320.651 -284.223 281.365 -269.774 247.301C-254.234 210.668 -222.019 186.679 -196.839 155.867C-153.323 102.619 -136.631 -0.455205 -67.8671 0.238087C-1.536 0.906862 -4.89591 116.089 46.2606 158.318C94.4732 198.117 209.731 170.668 214.139 233.029C219.235 305.109 87.5713 313.657 62.0215 381.249C42.0838 433.994 123.918 493.808 96.8637 543.282Z" fill="#018ABD"/>
</svg>
