<svg width="171" height="467" viewBox="0 0 171 467" fill="none" xmlns="http://www.w3.org/2000/svg">
<path fill-rule="evenodd" clip-rule="evenodd" d="M451.949 3.95764C502.647 10.7807 519.775 78.6025 540.859 125.211C559.647 166.743 554.077 212.842 566.305 256.755C584.585 322.405 676.438 396.359 630.337 446.546C579.877 501.478 486.787 423.174 412.208 424.508C375.212 425.17 344.049 453.608 307.069 452.329C267.3 450.955 233.358 429.48 195.567 417.019C130.258 395.483 28.0507 416.85 4.0478 352.407C-19.1058 290.245 89.6261 252.091 110.71 189.197C130.581 129.922 63.6395 32.1641 120.276 5.6933C185.739 -24.9026 240.916 94.9468 313.175 94.5687C369.562 94.2736 396.065 -3.56326 451.949 3.95764Z" fill="#018ABD"/>
</svg>
