<svg width="294" height="586" viewBox="0 0 294 586" fill="none" xmlns="http://www.w3.org/2000/svg">
<path fill-rule="evenodd" clip-rule="evenodd" d="M72.6507 570.644C33.8617 603.995 -28.2011 571.724 -77.0404 556.507C-120.561 542.946 -151.307 508.15 -192.248 488.106C-253.454 458.14 -369.756 477.633 -376.622 409.832C-384.139 335.622 -263.764 318.095 -215.201 261.478C-191.111 233.393 -191.652 191.208 -166.123 164.424C-138.668 135.62 -100.065 124.526 -65.6395 104.568C-6.14736 70.0766 45.8064 -20.4981 109.912 4.38958C171.75 28.3967 128.005 135.002 160.993 192.552C192.082 246.791 309.617 261.732 291.761 321.645C271.122 390.894 144.896 352.483 97.1602 406.73C59.91 449.062 115.407 533.882 72.6507 570.644Z" fill="#018ABD"/>
</svg>
