<svg width="30" height="46" viewBox="0 0 30 46" fill="none" xmlns="http://www.w3.org/2000/svg">
<path d="M24.6326 42.6845H40.3684C41.5968 42.6845 42.7749 42.1965 43.6434 41.3279C44.512 40.4593 45 39.2813 45 38.0529V10.2634C45 9.03504 44.512 7.85698 43.6434 6.98839C42.7749 6.1198 41.5968 5.63184 40.3684 5.63184H12.5789C11.3506 5.63184 10.1725 6.1198 9.30393 6.98839C8.43534 7.85698 7.94737 9.03504 7.94737 10.2634V19.5266" stroke="#97CBDC" stroke-opacity="0.22" stroke-width="1.5" stroke-linecap="round" stroke-linejoin="round"/>
<path d="M10.2652 44.9999C5.14926 44.9999 1.002 40.8527 1.002 35.7368C1.002 30.6209 5.14926 26.4736 10.2652 26.4736C15.3811 26.4736 19.5283 30.6209 19.5283 35.7368C19.5283 40.8527 15.3811 44.9999 10.2652 44.9999Z" stroke="#97CBDC" stroke-opacity="0.22" stroke-width="1.5" stroke-linecap="round" stroke-linejoin="round"/>
<path d="M17.208 1V10.2632" stroke="#97CBDC" stroke-opacity="0.22" stroke-width="1.5" stroke-linecap="round" stroke-linejoin="round"/>
<path d="M45 19.5264H7.94737" stroke="#97CBDC" stroke-opacity="0.22" stroke-width="1.5" stroke-linecap="round" stroke-linejoin="round"/>
<path d="M10.2646 32.2539V35.7369L7.94886 38.0526" stroke="#97CBDC" stroke-opacity="0.22" stroke-width="1.5" stroke-linecap="round" stroke-linejoin="round"/>
</svg>
