<svg width="80" height="80" viewBox="0 0 80 80" fill="none" xmlns="http://www.w3.org/2000/svg">
<path d="M3.19127 46.125L10 49.5225V58.75C10.0002 59.0487 10.1073 59.3375 10.302 59.564C10.4966 59.7906 10.766 59.9399 11.0613 59.985L8.76252 76.0725C8.73708 76.2499 8.75006 76.4306 8.80058 76.6025C8.8511 76.7744 8.93799 76.9334 9.05535 77.0688C9.17271 77.2042 9.3178 77.3127 9.48079 77.3871C9.64378 77.4615 9.82085 77.5 10 77.5H15C15.2882 77.5001 15.5675 77.4006 15.7907 77.2183C16.014 77.0361 16.1674 76.7823 16.225 76.5L18.5238 65H18.9763L21.275 76.5C21.3327 76.7823 21.4861 77.0361 21.7093 77.2183C21.9325 77.4006 22.2119 77.5001 22.5 77.5H27.5C27.6792 77.5 27.8563 77.4615 28.0192 77.3871C28.1822 77.3127 28.3273 77.2042 28.4447 77.0688C28.562 76.9334 28.6489 76.7744 28.6995 76.6025C28.75 76.4306 28.763 76.2499 28.7375 76.0725L26.4388 59.985C26.734 59.9399 27.0034 59.7906 27.1981 59.564C27.3927 59.3375 27.4999 59.0487 27.5 58.75V49.5225L34.3088 46.125C34.5175 46.0207 34.6929 45.86 34.8151 45.6612C34.9372 45.4624 35.0013 45.2334 35 45V41.25C35.0001 41.0566 34.9552 40.8658 34.869 40.6926C34.7828 40.5195 34.6576 40.3687 34.5033 40.2521C34.3489 40.1355 34.1696 40.0564 33.9795 40.0209C33.7893 39.9854 33.5935 39.9945 33.4075 40.0475L24.825 42.5H23.7175C24.5448 41.4245 24.9954 40.1068 25 38.75C25 37.0924 24.3415 35.5027 23.1694 34.3306C21.9973 33.1585 20.4076 32.5 18.75 32.5C17.0924 32.5 15.5027 33.1585 14.3306 34.3306C13.1585 35.5027 12.5 37.0924 12.5 38.75C12.5046 40.1068 12.9553 41.4245 13.7825 42.5H12.675L4.09252 40.0475C3.9065 39.9945 3.71071 39.9854 3.52057 40.0209C3.33043 40.0564 3.15113 40.1355 2.99677 40.2521C2.8424 40.3687 2.7172 40.5195 2.631 40.6926C2.5448 40.8658 2.49997 41.0566 2.50002 41.25V45C2.49874 45.2334 2.56282 45.4624 2.68498 45.6612C2.80714 45.86 2.98252 46.0207 3.19127 46.125V46.125ZM18.75 35C19.4917 35 20.2167 35.2199 20.8334 35.632C21.4501 36.044 21.9307 36.6297 22.2146 37.3149C22.4984 38.0002 22.5727 38.7542 22.428 39.4816C22.2833 40.209 21.9261 40.8772 21.4017 41.4016C20.8772 41.9261 20.209 42.2833 19.4816 42.4279C18.7542 42.5726 18.0002 42.4984 17.315 42.2145C16.6297 41.9307 16.0441 41.4501 15.632 40.8334C15.22 40.2167 15 39.4917 15 38.75C15 37.7554 15.3951 36.8016 16.0984 36.0983C16.8016 35.3951 17.7555 35 18.75 35V35ZM5.00002 42.9075L12.1575 44.9525C12.269 44.984 12.3842 45 12.5 45H25C25.1158 45 25.2311 44.984 25.3425 44.9525L32.5 42.9075V44.2275L25.6913 47.625C25.4825 47.7293 25.3071 47.89 25.185 48.0888C25.0628 48.2876 24.9987 48.5166 25 48.75V57.5C24.8209 57.5 24.6438 57.5385 24.4808 57.6129C24.3178 57.6873 24.1727 57.7958 24.0553 57.9312C23.938 58.0666 23.8511 58.2256 23.8006 58.3975C23.7501 58.5694 23.7371 58.7501 23.7625 58.9275L26.0588 75H23.5238L21.225 63.5C21.1674 63.2177 21.014 62.9639 20.7907 62.7817C20.5675 62.5994 20.2882 62.4999 20 62.5H17.5C17.2119 62.4999 16.9325 62.5994 16.7093 62.7817C16.4861 62.9639 16.3327 63.2177 16.275 63.5L13.9763 75H11.4413L13.7375 58.9275C13.763 58.7501 13.75 58.5694 13.6995 58.3975C13.6489 58.2256 13.562 58.0666 13.4447 57.9312C13.3273 57.7958 13.1822 57.6873 13.0193 57.6129C12.8563 57.5385 12.6792 57.5 12.5 57.5V48.75C12.5013 48.5166 12.4372 48.2876 12.3151 48.0888C12.1929 47.89 12.0175 47.7293 11.8088 47.625L5.00002 44.2275V42.9075Z" fill="#224265"/>
<path d="M75.9075 40.0475L67.325 42.5H66.2175C67.0448 41.4245 67.4954 40.1068 67.5 38.75C67.5 37.0924 66.8415 35.5027 65.6694 34.3306C64.4973 33.1585 62.9076 32.5 61.25 32.5C59.5924 32.5 58.0027 33.1585 56.8306 34.3306C55.6585 35.5027 55 37.0924 55 38.75C55.0046 40.1068 55.4553 41.4245 56.2825 42.5H55.175L46.5925 40.0475C46.4065 39.9945 46.2107 39.9854 46.0206 40.0209C45.8304 40.0564 45.6511 40.1355 45.4968 40.2521C45.3424 40.3687 45.2172 40.5195 45.131 40.6926C45.0448 40.8658 45 41.0566 45 41.25V45C44.9987 45.2334 45.0628 45.4624 45.185 45.6612C45.3071 45.86 45.4825 46.0207 45.6913 46.125L52.5 49.5225V58.75C52.5002 59.0487 52.6073 59.3375 52.802 59.564C52.9966 59.7906 53.266 59.9399 53.5613 59.985L51.2625 76.0725C51.2371 76.2499 51.2501 76.4306 51.3006 76.6025C51.3511 76.7744 51.438 76.9334 51.5554 77.0688C51.6727 77.2042 51.8178 77.3127 51.9808 77.3871C52.1438 77.4615 52.3209 77.5 52.5 77.5H57.5C57.7882 77.5001 58.0675 77.4006 58.2907 77.2183C58.514 77.0361 58.6674 76.7823 58.725 76.5L61.0238 65H61.4763L63.775 76.5C63.8327 76.7823 63.9861 77.0361 64.2093 77.2183C64.4325 77.4006 64.7119 77.5001 65 77.5H70C70.1792 77.5 70.3563 77.4615 70.5193 77.3871C70.6822 77.3127 70.8273 77.2042 70.9447 77.0688C71.062 76.9334 71.1489 76.7744 71.1995 76.6025C71.25 76.4306 71.263 76.2499 71.2375 76.0725L68.9388 59.985C69.234 59.9399 69.5034 59.7906 69.6981 59.564C69.8927 59.3375 69.9999 59.0487 70 58.75V49.5225L76.8088 46.125C77.0175 46.0207 77.1929 45.86 77.3151 45.6612C77.4372 45.4624 77.5013 45.2334 77.5 45V41.25C77.5001 41.0566 77.4552 40.8658 77.369 40.6926C77.2828 40.5195 77.1576 40.3687 77.0033 40.2521C76.8489 40.1355 76.6696 40.0564 76.4795 40.0209C76.2893 39.9854 76.0935 39.9945 75.9075 40.0475V40.0475ZM61.25 35C61.9917 35 62.7167 35.2199 63.3334 35.632C63.9501 36.044 64.4307 36.6297 64.7146 37.3149C64.9984 38.0002 65.0727 38.7542 64.928 39.4816C64.7833 40.209 64.4261 40.8772 63.9017 41.4016C63.3772 41.9261 62.709 42.2833 61.9816 42.4279C61.2542 42.5726 60.5002 42.4984 59.815 42.2145C59.1297 41.9307 58.5441 41.4501 58.132 40.8334C57.72 40.2167 57.5 39.4917 57.5 38.75C57.5 37.7554 57.8951 36.8016 58.5984 36.0983C59.3016 35.3951 60.2555 35 61.25 35ZM75 44.2275L68.1913 47.625C67.9825 47.7293 67.8071 47.89 67.685 48.0888C67.5628 48.2876 67.4987 48.5166 67.5 48.75V57.5C67.3209 57.5 67.1438 57.5385 66.9808 57.6129C66.8178 57.6873 66.6727 57.7958 66.5554 57.9312C66.438 58.0666 66.3511 58.2256 66.3006 58.3975C66.2501 58.5694 66.2371 58.7501 66.2625 58.9275L68.5588 75H66.0238L63.725 63.5C63.6674 63.2177 63.514 62.9639 63.2907 62.7817C63.0675 62.5994 62.7882 62.4999 62.5 62.5H60C59.7119 62.4999 59.4325 62.5994 59.2093 62.7817C58.9861 62.9639 58.8327 63.2177 58.775 63.5L56.4763 75H53.9413L56.2375 58.9275C56.263 58.7501 56.25 58.5694 56.1995 58.3975C56.1489 58.2256 56.062 58.0666 55.9447 57.9312C55.8273 57.7958 55.6822 57.6873 55.5193 57.6129C55.3563 57.5385 55.1792 57.5 55 57.5V48.75C55.0013 48.5166 54.9372 48.2876 54.8151 48.0888C54.6929 47.89 54.5175 47.7293 54.3088 47.625L47.5 44.2275V42.9075L54.6575 44.9525C54.769 44.984 54.8842 45 55 45H67.5C67.6158 45 67.7311 44.984 67.8425 44.9525L75 42.9075V44.2275Z" fill="#224265"/>
<path d="M47.4999 32.5001C47.5 32.2171 47.4123 31.941 47.2488 31.71C47.0854 31.4789 46.8543 31.3043 46.5874 31.2101C43.4399 30.1151 42.4949 27.1714 41.2974 23.4464C41.2094 23.1718 41.0364 22.9322 40.8034 22.7623C40.5705 22.5923 40.2895 22.5007 40.0012 22.5007C39.7128 22.5007 39.4319 22.5923 39.1989 22.7623C38.9659 22.9322 38.793 23.1718 38.7049 23.4464C37.5074 27.1701 36.5624 30.1139 33.4137 31.2089C33.1466 31.3028 32.9152 31.4774 32.7516 31.7085C32.5879 31.9395 32.5 32.2157 32.5 32.4989C32.5 32.782 32.5879 33.0582 32.7516 33.2893C32.9152 33.5203 33.1466 33.6949 33.4137 33.7889C36.5612 34.8839 37.5062 37.8276 38.7037 41.5526C38.7917 41.8272 38.9647 42.0668 39.1977 42.2367C39.4306 42.4067 39.7116 42.4982 39.9999 42.4982C40.2883 42.4982 40.5692 42.4067 40.8022 42.2367C41.0352 42.0668 41.2081 41.8272 41.2962 41.5526C42.4937 37.8289 43.4387 34.8851 46.5874 33.7901C46.8543 33.696 47.0854 33.5213 47.2488 33.2902C47.4123 33.0592 47.5 32.7831 47.4999 32.5001V32.5001ZM39.9999 37.6426C39.3292 35.6012 38.059 33.8091 36.3549 32.5001C38.0588 31.1909 39.3289 29.3989 39.9999 27.3576C40.6707 29.3991 41.9409 31.1911 43.6449 32.5001C41.9411 33.8094 40.6709 35.6013 39.9999 37.6426V37.6426Z" fill="#DB8C23"/>
<path d="M45.1891 6.33372L42.3941 5.90747L41.1316 3.21872C41.0307 3.00398 40.8707 2.8224 40.6704 2.69521C40.4701 2.56803 40.2377 2.50049 40.0004 2.50049C39.7631 2.50049 39.5307 2.56803 39.3304 2.69521C39.1301 2.8224 38.9701 3.00398 38.8691 3.21872L37.6066 5.90747L34.8116 6.33372C34.5844 6.36836 34.3711 6.46498 34.1953 6.61295C34.0194 6.76093 33.8877 6.95453 33.8147 7.17248C33.7417 7.39043 33.7302 7.62429 33.7815 7.84834C33.8328 8.0724 33.9449 8.27797 34.1054 8.44247L36.1654 10.5525L35.6766 13.5525C35.6389 13.784 35.667 14.0216 35.7579 14.2379C35.8488 14.4542 35.9988 14.6405 36.1906 14.7756C36.3824 14.9107 36.6084 14.9891 36.8427 15.0018C37.077 15.0145 37.3101 14.961 37.5154 14.8475L40.0004 13.47L42.4854 14.845C42.6907 14.9585 42.9238 15.012 43.1581 14.9993C43.3924 14.9866 43.6184 14.9082 43.8102 14.7731C44.002 14.638 44.152 14.4517 44.2428 14.2354C44.3337 14.0191 44.3619 13.7815 44.3241 13.55L43.8354 10.55L45.8954 8.43997C46.0559 8.27547 46.168 8.0699 46.2193 7.84584C46.2705 7.62179 46.2591 7.38793 46.1861 7.16998C46.1131 6.95203 45.9814 6.75843 45.8055 6.61045C45.6296 6.46248 45.4164 6.36586 45.1891 6.33122V6.33372ZM41.6054 9.25872C41.4687 9.39886 41.3668 9.56915 41.308 9.75588C41.2491 9.9426 41.235 10.1405 41.2666 10.3337L41.4416 11.4112L40.6041 10.9487C40.4193 10.8467 40.2115 10.7932 40.0004 10.7932C39.7892 10.7932 39.5815 10.8467 39.3966 10.9487L38.5591 11.4112L38.7341 10.3337C38.7658 10.1405 38.7516 9.9426 38.6928 9.75588C38.634 9.56915 38.5321 9.39886 38.3954 9.25872L37.5941 8.43747L38.6441 8.27747C38.8469 8.24651 39.039 8.16612 39.2033 8.04339C39.3677 7.92065 39.4993 7.75936 39.5866 7.57372L40.0004 6.69872L40.4141 7.57997C40.5014 7.76561 40.6331 7.92691 40.7974 8.04964C40.9618 8.17237 41.1539 8.25276 41.3566 8.28372L42.4066 8.44372L41.6054 9.25872Z" fill="#DB8C23"/>
<path d="M14.9352 19.6725C14.862 19.4541 14.7299 19.2602 14.5534 19.1122C14.3769 18.9642 14.163 18.8678 13.9352 18.8337L11.1402 18.4075L9.87773 15.7187C9.77679 15.504 9.6168 15.3224 9.41648 15.1952C9.21616 15.068 8.98377 15.0005 8.74648 15.0005C8.50919 15.0005 8.27681 15.068 8.07648 15.1952C7.87616 15.3224 7.71618 15.504 7.61523 15.7187L6.35273 18.4075L3.55773 18.8337C3.33051 18.8684 3.11723 18.965 2.94135 19.113C2.76547 19.2609 2.6338 19.4545 2.5608 19.6725C2.48781 19.8904 2.47632 20.1243 2.5276 20.3483C2.57889 20.5724 2.69095 20.778 2.85148 20.9425L4.91148 23.0525L4.42273 26.0525C4.38497 26.284 4.41314 26.5216 4.50403 26.7379C4.59491 26.9542 4.74484 27.1405 4.93667 27.2756C5.1285 27.4107 5.35448 27.4891 5.58876 27.5018C5.82304 27.5145 6.05617 27.461 6.26148 27.3475L8.75023 25.97L11.2352 27.345C11.4405 27.4585 11.6737 27.512 11.908 27.4993C12.1422 27.4866 12.3682 27.4082 12.56 27.2731C12.7519 27.138 12.9018 26.9517 12.9927 26.7354C13.0836 26.5191 13.1117 26.2815 13.074 26.05L12.5852 23.05L14.6452 20.94C14.8052 20.7756 14.9169 20.5705 14.968 20.3469C15.0192 20.1233 15.0078 19.89 14.9352 19.6725V19.6725ZM10.3552 21.7587C10.2185 21.8989 10.1167 22.0692 10.0578 22.2559C9.99898 22.4426 9.98482 22.6405 10.0165 22.8337L10.1915 23.9112L9.35398 23.4487C9.16909 23.3467 8.96138 23.2932 8.75023 23.2932C8.53908 23.2932 8.33137 23.3467 8.14648 23.4487L7.30898 23.9112L7.48398 22.8337C7.51564 22.6405 7.50149 22.4426 7.44265 22.2559C7.38381 22.0692 7.28193 21.8989 7.14523 21.7587L6.34398 20.9375L7.39398 20.7775C7.59677 20.7465 7.78881 20.6661 7.95318 20.5434C8.11755 20.4207 8.24919 20.2594 8.33648 20.0737L8.75023 19.1925L9.16398 20.0737C9.25128 20.2594 9.38291 20.4207 9.54728 20.5434C9.71165 20.6661 9.9037 20.7465 10.1065 20.7775L11.1565 20.9375L10.3552 21.7587Z" fill="#DB8C23"/>
<path d="M65.0649 19.6725C64.9918 19.8904 64.9802 20.1242 65.0314 20.3483C65.0825 20.5723 65.1945 20.778 65.3549 20.9425L67.4149 23.0525L66.9261 26.0525C66.8884 26.2841 66.9165 26.5216 67.0074 26.7379C67.0983 26.9542 67.2482 27.1406 67.4401 27.2757C67.6319 27.4108 67.8579 27.4892 68.0922 27.5019C68.3264 27.5146 68.5596 27.4611 68.7649 27.3475L71.2499 25.97L73.7349 27.345C73.9402 27.4586 74.1733 27.5121 74.4076 27.4994C74.6419 27.4867 74.8679 27.4083 75.0597 27.2732C75.2515 27.1381 75.4015 26.9517 75.4923 26.7354C75.5832 26.5191 75.6114 26.2816 75.5736 26.05L75.0849 23.05L77.1449 20.94C77.3054 20.7755 77.4175 20.57 77.4688 20.3459C77.52 20.1218 77.5086 19.888 77.4356 19.67C77.3626 19.4521 77.2309 19.2585 77.055 19.1105C76.8791 18.9625 76.6659 18.8659 76.4386 18.8313L73.6436 18.405L72.3811 15.7163C72.2802 15.5015 72.1202 15.32 71.9199 15.1928C71.7196 15.0656 71.4872 14.998 71.2499 14.998C71.0126 14.998 70.7802 15.0656 70.5799 15.1928C70.3796 15.32 70.2196 15.5015 70.1186 15.7163L68.8561 18.405L66.0611 18.8313C65.8337 18.8662 65.6204 18.9633 65.4446 19.1117C65.2689 19.2601 65.1374 19.4542 65.0649 19.6725V19.6725ZM69.8936 20.7775C70.0964 20.7466 70.2885 20.6662 70.4528 20.5434C70.6172 20.4207 70.7488 20.2594 70.8361 20.0738L71.2499 19.1925L71.6636 20.0738C71.7509 20.2594 71.8826 20.4207 72.0469 20.5434C72.2113 20.6662 72.4034 20.7466 72.6061 20.7775L73.6561 20.9375L72.8549 21.7588C72.7182 21.8989 72.6163 22.0692 72.5575 22.2559C72.4986 22.4427 72.4845 22.6406 72.5161 22.8338L72.6911 23.9113L71.8536 23.4488C71.6688 23.3468 71.461 23.2933 71.2499 23.2933C71.0387 23.2933 70.831 23.3468 70.6461 23.4488L69.8086 23.9113L69.9836 22.8338C70.0153 22.6406 70.0011 22.4427 69.9423 22.2559C69.8835 22.0692 69.7816 21.8989 69.6449 21.7588L68.8436 20.9375L69.8936 20.7775Z" fill="#DB8C23"/>
<path d="M53.75 18.75V16.25C51.4303 16.253 49.2064 17.1758 47.5661 18.8161C45.9258 20.4564 45.003 22.6803 45 25H47.5C47.502 23.343 48.1611 21.7544 49.3328 20.5828C50.5044 19.4111 52.093 18.752 53.75 18.75V18.75Z" fill="#DB8C23"/>
<path d="M26.25 16.25V18.75C27.907 18.752 29.4956 19.4111 30.6672 20.5828C31.8389 21.7544 32.498 23.343 32.5 25H35C34.997 22.6803 34.0742 20.4564 32.4339 18.8161C30.7936 17.1758 28.5697 16.253 26.25 16.25V16.25Z" fill="#DB8C23"/>
<path d="M57.5 8.75H60V11.25H57.5V8.75Z" fill="#DB8C23"/>
<path d="M57.5 13.75H60V16.25H57.5V13.75Z" fill="#DB8C23"/>
<path d="M60 11.25H62.5V13.75H60V11.25Z" fill="#DB8C23"/>
<path d="M55 11.25H57.5V13.75H55V11.25Z" fill="#DB8C23"/>
<path d="M20 8.75H22.5V11.25H20V8.75Z" fill="#DB8C23"/>
<path d="M8.75 3.75H11.25V6.25H8.75V3.75Z" fill="#DB8C23"/>
<path d="M18.75 26.25H21.25V28.75H18.75V26.25Z" fill="#DB8C23"/>
<path d="M58.75 26.25H61.25V28.75H58.75V26.25Z" fill="#DB8C23"/>
<path d="M68.75 3.75H71.25V6.25H68.75V3.75Z" fill="#DB8C23"/>
<path d="M20 13.75H22.5V16.25H20V13.75Z" fill="#DB8C23"/>
<path d="M22.5 11.25H25V13.75H22.5V11.25Z" fill="#DB8C23"/>
<path d="M17.5 11.25H20V13.75H17.5V11.25Z" fill="#DB8C23"/>
</svg>
