<svg width="80" height="80" viewBox="0 0 80 80" fill="none" xmlns="http://www.w3.org/2000/svg">
<path d="M34.9997 30.8333C35.0007 31.8613 35.321 32.8636 35.9163 33.7017L29.5547 40H20.833C18.8446 40.0022 16.9382 40.7931 15.5321 42.1991C14.1261 43.6052 13.3352 45.5116 13.333 47.5V59.1667C13.3352 61.1551 14.1261 63.0615 15.5321 64.4675C16.9382 65.8736 18.8446 66.6645 20.833 66.6667H59.1663C61.1548 66.6645 63.0612 65.8736 64.4672 64.4675C65.8733 63.0615 66.6641 61.1551 66.6663 59.1667V47.5C66.6641 45.5116 65.8733 43.6052 64.4672 42.1991C63.0612 40.7931 61.1548 40.0022 59.1663 40H50.4463L44.083 33.7017C44.5372 33.0589 44.8332 32.3181 44.9471 31.5394C45.0609 30.7606 44.9893 29.966 44.7381 29.2202C44.4869 28.4744 44.0632 27.7984 43.5014 27.2472C42.9397 26.696 42.2557 26.2852 41.5053 26.0482C40.7548 25.8113 39.959 25.7548 39.1826 25.8834C38.4061 26.012 37.671 26.3221 37.0371 26.7884C36.4031 27.2547 35.8881 27.8641 35.5341 28.5669C35.1801 29.2698 34.997 30.0463 34.9997 30.8333ZM59.1663 41.6667C60.7134 41.6667 62.1972 42.2812 63.2911 43.3752C64.3851 44.4692 64.9997 45.9529 64.9997 47.5V59.1667C64.9997 60.7138 64.3851 62.1975 63.2911 63.2915C62.1972 64.3854 60.7134 65 59.1663 65H20.833C19.2859 65 17.8022 64.3854 16.7082 63.2915C15.6143 62.1975 14.9997 60.7138 14.9997 59.1667V47.5C14.9997 45.9529 15.6143 44.4692 16.7082 43.3752C17.8022 42.2812 19.2859 41.6667 20.833 41.6667H59.1663ZM48.078 40H31.923L37.0897 34.8833C37.9372 35.4922 38.9545 35.8197 39.998 35.8197C41.0416 35.8197 42.0588 35.4922 42.9063 34.8833L48.078 40ZM43.333 30.8333C43.333 31.4926 43.1375 32.1371 42.7712 32.6852C42.405 33.2334 41.8844 33.6606 41.2753 33.9129C40.6662 34.1652 39.996 34.2312 39.3494 34.1026C38.7028 33.974 38.1088 33.6565 37.6427 33.1904C37.1765 32.7242 36.859 32.1302 36.7304 31.4836C36.6018 30.837 36.6678 30.1668 36.9201 29.5577C37.1724 28.9486 37.5996 28.428 38.1478 28.0618C38.6959 27.6955 39.3404 27.5 39.9997 27.5C40.8837 27.5 41.7316 27.8512 42.3567 28.4763C42.9818 29.1014 43.333 29.9493 43.333 30.8333Z" fill="#DB8C23"/>
<path d="M31.6663 58.3334C31.8874 58.3334 32.0993 58.2456 32.2556 58.0893C32.4119 57.933 32.4997 57.7211 32.4997 57.5001V55.0001H36.6663V57.5001C36.6663 57.7211 36.7541 57.933 36.9104 58.0893C37.0667 58.2456 37.2787 58.3334 37.4997 58.3334C37.7207 58.3334 37.9327 58.2456 38.0889 58.0893C38.2452 57.933 38.333 57.7211 38.333 57.5001V51.6667C38.2737 50.7289 37.8464 49.8525 37.1441 49.2282C36.4418 48.6039 35.5213 48.2823 34.583 48.3334C33.6447 48.2823 32.7242 48.6039 32.0219 49.2282C31.3196 49.8525 30.8923 50.7289 30.833 51.6667V57.5001C30.833 57.7211 30.9208 57.933 31.0771 58.0893C31.2334 58.2456 31.4453 58.3334 31.6663 58.3334ZM32.4997 51.6667C32.5612 51.1722 32.8134 50.7212 33.2025 50.4099C33.5917 50.0986 34.087 49.9515 34.583 50.0001C35.079 49.9515 35.5743 50.0986 35.9635 50.4099C36.3526 50.7212 36.6048 51.1722 36.6663 51.6667V53.3334H32.4997V51.6667Z" fill="#DB8C23"/>
<path d="M44.167 58.3333H48.3337C48.5547 58.3333 48.7666 58.2455 48.9229 58.0892C49.0792 57.9329 49.167 57.7209 49.167 57.4999C49.167 57.2789 49.0792 57.0669 48.9229 56.9107C48.7666 56.7544 48.5547 56.6666 48.3337 56.6666H44.167C43.946 56.6666 43.734 56.5788 43.5777 56.4225C43.4215 56.2662 43.3337 56.0543 43.3337 55.8333V49.1666C43.3337 48.9456 43.2459 48.7336 43.0896 48.5773C42.9333 48.421 42.7213 48.3333 42.5003 48.3333C42.2793 48.3333 42.0673 48.421 41.9111 48.5773C41.7548 48.7336 41.667 48.9456 41.667 49.1666V55.8333C41.667 56.4963 41.9304 57.1322 42.3992 57.601C42.8681 58.0699 43.504 58.3333 44.167 58.3333Z" fill="#DB8C23"/>
<path d="M24.098 54.1666H25.0697C25.2596 54.1192 25.4578 54.1157 25.6493 54.1564C25.8407 54.1971 26.0204 54.2808 26.1747 54.4013C26.3289 54.5218 26.4537 54.6759 26.5395 54.8518C26.6253 55.0277 26.6699 55.2209 26.6699 55.4166C26.6699 55.6123 26.6253 55.8055 26.5395 55.9814C26.4537 56.1574 26.3289 56.3114 26.1747 56.4319C26.0204 56.5524 25.8407 56.6362 25.6493 56.6768C25.4578 56.7175 25.2596 56.714 25.0697 56.6666H23.6113C23.008 56.6666 22.4997 56.2849 22.4997 55.8333C22.4997 55.6123 22.4119 55.4003 22.2556 55.244C22.0993 55.0877 21.8874 54.9999 21.6663 54.9999C21.4453 54.9999 21.2334 55.0877 21.0771 55.244C20.9208 55.4003 20.833 55.6123 20.833 55.8333C20.8726 56.5322 21.1869 57.1872 21.7073 57.6555C22.2277 58.1237 22.9121 58.3674 23.6113 58.3333H25.0697C25.4802 58.3794 25.8958 58.3383 26.2893 58.2128C26.6828 58.0872 27.0454 57.88 27.3533 57.6047C27.6613 57.3294 27.9077 56.9922 28.0763 56.6151C28.245 56.2381 28.3322 55.8297 28.3322 55.4166C28.3322 55.0035 28.245 54.5951 28.0763 54.2181C27.9077 53.841 27.6613 53.5038 27.3533 53.2285C27.0454 52.9532 26.6828 52.746 26.2893 52.6205C25.8958 52.4949 25.4802 52.4538 25.0697 52.4999H24.098C23.9081 52.5473 23.7099 52.5508 23.5184 52.5102C23.3269 52.4695 23.1473 52.3857 22.993 52.2652C22.8387 52.1447 22.714 51.9907 22.6282 51.8148C22.5423 51.6388 22.4977 51.4457 22.4977 51.2499C22.4977 51.0542 22.5423 50.861 22.6282 50.6851C22.714 50.5092 22.8387 50.3551 22.993 50.2346C23.1473 50.1141 23.3269 50.0304 23.5184 49.9897C23.7099 49.9491 23.9081 49.9525 24.098 49.9999H25.5563C26.158 49.9999 26.6663 50.3816 26.6663 50.8333C26.6663 51.0543 26.7541 51.2663 26.9104 51.4225C27.0667 51.5788 27.2787 51.6666 27.4997 51.6666C27.7207 51.6666 27.9327 51.5788 28.0889 51.4225C28.2452 51.2663 28.333 51.0543 28.333 50.8333C28.2934 50.1346 27.9794 49.4799 27.4593 49.0117C26.9393 48.5435 26.2553 48.2996 25.5563 48.3333H24.098C23.6875 48.2872 23.2719 48.3282 22.8784 48.4538C22.4849 48.5793 22.1223 48.7865 21.8143 49.0618C21.5064 49.3371 21.26 49.6743 21.0913 50.0514C20.9227 50.4285 20.8355 50.8369 20.8355 51.2499C20.8355 51.663 20.9227 52.0714 21.0913 52.4485C21.26 52.8255 21.5064 53.1627 21.8143 53.438C22.1223 53.7133 22.4849 53.9205 22.8784 54.0461C23.2719 54.1716 23.6875 54.2127 24.098 54.1666Z" fill="#DB8C23"/>
<path d="M54.3747 58.3333H58.7497C58.9707 58.3333 59.1827 58.2455 59.339 58.0892C59.4952 57.9329 59.583 57.7209 59.583 57.4999C59.583 57.2789 59.4952 57.0669 59.339 56.9107C59.1827 56.7544 58.9707 56.6666 58.7497 56.6666H54.3747C54.0414 56.6666 53.7497 56.2849 53.7497 55.8333V54.1666H58.7497C58.9707 54.1666 59.1827 54.0788 59.339 53.9225C59.4952 53.7662 59.583 53.5543 59.583 53.3333C59.583 53.1122 59.4952 52.9003 59.339 52.744C59.1827 52.5877 58.9707 52.4999 58.7497 52.4999H53.7497V50.8333C53.7497 50.3816 54.0364 49.9999 54.3747 49.9999H58.7497C58.9707 49.9999 59.1827 49.9121 59.339 49.7558C59.4952 49.5996 59.583 49.3876 59.583 49.1666C59.583 48.9456 59.4952 48.7336 59.339 48.5773C59.1827 48.421 58.9707 48.3333 58.7497 48.3333H54.3747C53.7399 48.3627 53.1426 48.6421 52.7132 49.1106C52.2838 49.579 52.0573 50.1983 52.083 50.8333V55.8333C52.0573 56.4682 52.2838 57.0875 52.7132 57.556C53.1426 58.0244 53.7399 58.3038 54.3747 58.3333Z" fill="#DB8C23"/>
<path d="M75.8333 70H71.6667V36.2233C72.5407 36.5356 73.494 36.5471 74.3753 36.2561C75.2566 35.965 76.0155 35.388 76.5317 34.6166L78.0783 32.2983C78.6794 31.4027 78.9087 30.3086 78.7177 29.247C78.5268 28.1855 77.9305 27.2399 77.055 26.61L42.4417 1.57162C41.7312 1.05783 40.8768 0.78125 40 0.78125C39.1232 0.78125 38.2688 1.05783 37.5583 1.57162L2.94667 26.61C2.07055 27.2393 1.47368 28.1849 1.28237 29.2466C1.09107 30.3082 1.32034 31.4027 1.92167 32.2983L3.46833 34.6183C3.98395 35.39 4.74357 35.9664 5.62561 36.2553C6.50764 36.5442 7.46108 36.5288 8.33333 36.2116V70H4.16667C3.0616 70 2.00179 70.4389 1.22039 71.2203C0.438987 72.0017 0 73.0615 0 74.1666L0 75.8333C0 76.3805 0.107774 76.9223 0.317169 77.4278C0.526563 77.9333 0.833478 78.3927 1.22039 78.7796C1.6073 79.1665 2.06663 79.4734 2.57215 79.6828C3.07768 79.8922 3.61949 80 4.16667 80H75.8333C76.3805 80 76.9223 79.8922 77.4278 79.6828C77.9334 79.4734 78.3927 79.1665 78.7796 78.7796C79.1665 78.3927 79.4734 77.9333 79.6828 77.4278C79.8922 76.9223 80 76.3805 80 75.8333V74.1666C80 73.6194 79.8922 73.0776 79.6828 72.5721C79.4734 72.0666 79.1665 71.6072 78.7796 71.2203C78.3927 70.8334 77.9334 70.5265 77.4278 70.3171C76.9223 70.1077 76.3805 70 75.8333 70ZM4.855 33.6916L3.30833 31.375C2.94892 30.8368 2.81219 30.1803 2.92688 29.5434C3.04158 28.9065 3.39877 28.3389 3.92333 27.96L38.535 2.92162C38.9613 2.61335 39.4739 2.4474 40 2.4474C40.5261 2.4474 41.0387 2.61335 41.465 2.92162L76.0783 27.96C76.6026 28.3392 76.9595 28.9069 77.0739 29.5437C77.1882 30.1806 77.0512 30.837 76.6917 31.375L75.145 33.6916C74.9573 33.9701 74.7157 34.2081 74.4344 34.3916C74.1531 34.575 73.8379 34.7002 73.5074 34.7597C73.1768 34.8193 72.8378 34.8119 72.5101 34.7381C72.1825 34.6642 71.873 34.5255 71.6 34.33L41.465 12.5316C41.0387 12.2233 40.5261 12.0574 40 12.0574C39.4739 12.0574 38.9613 12.2233 38.535 12.5316L8.4 34.3333C8.12675 34.5286 7.81709 34.6672 7.48935 34.7408C7.1616 34.8143 6.82243 34.8214 6.4919 34.7616C6.16137 34.7018 5.8462 34.5762 5.56504 34.3925C5.28388 34.2087 5.04244 33.9704 4.855 33.6916ZM70 35.23V70H10V35.23L39.5117 13.8816C39.6538 13.7789 39.8246 13.7235 40 13.7235C40.1754 13.7235 40.3462 13.7789 40.4883 13.8816L70 35.23ZM78.3333 75.8333C78.3333 76.4963 78.0699 77.1322 77.6011 77.6011C77.1323 78.0699 76.4964 78.3333 75.8333 78.3333H4.16667C3.50363 78.3333 2.86774 78.0699 2.3989 77.6011C1.93006 77.1322 1.66667 76.4963 1.66667 75.8333V74.1666C1.66667 73.5036 1.93006 72.8677 2.3989 72.3988C2.86774 71.93 3.50363 71.6666 4.16667 71.6666H75.8333C76.4964 71.6666 77.1323 71.93 77.6011 72.3988C78.0699 72.8677 78.3333 73.5036 78.3333 74.1666V75.8333Z" fill="#224265"/>
</svg>
