<svg width="80" height="80" viewBox="0 0 80 80" fill="none" xmlns="http://www.w3.org/2000/svg">
<path d="M71 49.645L58.535 43.84V29.8201L59.845 30.43C59.9284 30.4672 60.0187 30.4868 60.11 30.4875C60.229 30.4875 60.3455 30.4537 60.446 30.3899C60.5465 30.3262 60.6268 30.2352 60.6775 30.1275L61.725 27.8776C61.76 27.8034 61.78 27.723 61.7839 27.6411C61.7878 27.5592 61.7754 27.4773 61.7475 27.4002C61.7196 27.3231 61.6768 27.2522 61.6214 27.1917C61.5661 27.1312 61.4993 27.0822 61.425 27.0476L43.535 18.6976V9.88005L46.285 8.60255C46.3592 8.56813 46.426 8.51941 46.4814 8.45918C46.5368 8.39894 46.5797 8.32838 46.6078 8.25152C46.6359 8.17466 46.6486 8.09302 46.6451 8.01126C46.6416 7.9295 46.622 7.84924 46.5875 7.77505L45.5375 5.50255C45.4672 5.35216 45.3406 5.23543 45.185 5.17755C45.1083 5.14785 45.0263 5.13429 44.9442 5.13773C44.862 5.14117 44.7814 5.16154 44.7075 5.19755L29.8225 12.1451C29.6728 12.2155 29.5572 12.3425 29.501 12.4981C29.4447 12.6536 29.4525 12.8252 29.5225 12.9751L30.5725 15.2251C30.6223 15.3329 30.702 15.4241 30.8022 15.4879C30.9024 15.5518 31.0187 15.5855 31.1375 15.5851C31.2288 15.5843 31.3191 15.5647 31.4025 15.5276L32.2875 15.1151V31.58L23.155 27.33C23.0718 27.2905 22.9809 27.27 22.8888 27.27C22.7966 27.27 22.7057 27.2905 22.6225 27.33L9 33.695C8.85071 33.7668 8.73446 33.8929 8.675 34.0476C8.64697 34.1247 8.63452 34.2066 8.63838 34.2886C8.64224 34.3705 8.66234 34.4509 8.6975 34.5251L9.745 36.775C9.79573 36.8827 9.87601 36.9737 9.97649 37.0374C10.077 37.1012 10.1935 37.135 10.3125 37.135C10.4032 37.1355 10.4928 37.1158 10.575 37.0775L12.2875 36.28V74.25C12.2875 74.4158 12.3533 74.5748 12.4706 74.692C12.5878 74.8092 12.7467 74.875 12.9125 74.875H67.9125C68.0783 74.875 68.2372 74.8092 68.3544 74.692C68.4716 74.5748 68.5375 74.4158 68.5375 74.25V52.615L69.425 53.03C69.5075 53.0674 69.5969 53.087 69.6875 53.0875C69.8065 53.0875 69.923 53.0537 70.0235 52.9899C70.124 52.9262 70.2043 52.8352 70.255 52.7275L71.305 50.4775C71.3399 50.4029 71.3597 50.3221 71.3632 50.2398C71.3668 50.1574 71.354 50.0752 71.3257 49.9979C71.2973 49.9205 71.254 49.8495 71.1981 49.7889C71.1422 49.7284 71.0749 49.6795 71 49.645ZM30.9175 13.0126L44.6675 6.59505L45.195 7.73505L31.445 14.1326L30.9175 13.0126ZM59.81 29.0325L58.18 28.2825L56.575 27.5325L40.915 20.2351L41.4425 19.0951L60.3325 27.9125L59.81 29.0325ZM10.095 34.5651L22.8875 28.58L32.2875 32.96V34.33L23.1775 30.08C23.0944 30.0417 23.004 30.0219 22.9125 30.0219C22.821 30.0219 22.7306 30.0417 22.6475 30.08L10.615 35.685L10.095 34.5651ZM13.5375 35.7101L22.9125 31.3275L32.2875 35.7101V73.6125H28.5375V61.75C28.5368 61.5845 28.4708 61.4259 28.3537 61.3088C28.2366 61.1918 28.0781 61.1257 27.9125 61.125H17.9125C17.7469 61.1257 17.5884 61.1918 17.4713 61.3088C17.3542 61.4259 17.2882 61.5845 17.2875 61.75V73.625H13.5375V35.7101ZM18.5375 73.6125V62.3625H27.2875V73.6125H18.5375ZM33.5375 35.3125V14.5351L42.2875 10.4651V18.1101L41.4025 17.6976C41.3279 17.6622 41.247 17.6422 41.1645 17.6387C41.0821 17.6353 40.9998 17.6485 40.9225 17.6776C40.7669 17.7354 40.6403 17.8522 40.57 18.0026L39.52 20.275C39.4516 20.4251 39.445 20.596 39.5016 20.7508C39.5582 20.9057 39.6735 21.032 39.8225 21.1026L42.2875 22.2601V73.6125H33.5375V35.3125ZM43.5375 22.8426L55.45 28.3801L57.2875 29.2375V73.6125H43.5375V22.8426ZM67.2875 52.035V73.6125H58.5375V47.945L59.6725 48.475L67.2875 52.035ZM69.385 51.6325L58.885 46.7275L58.5375 46.565V45.2175L69.9075 50.5L69.385 51.6325Z" fill="#224265"/>
<path d="M20.4121 54.8625H22.9121C23.0779 54.8625 23.2368 54.7967 23.3541 54.6795C23.4713 54.5623 23.5371 54.4033 23.5371 54.2375V51.7375C23.5365 51.572 23.4704 51.4134 23.3533 51.2963C23.2363 51.1793 23.0777 51.1132 22.9121 51.1125H20.4121C20.2466 51.1132 20.088 51.1793 19.9709 51.2963C19.8538 51.4134 19.7878 51.572 19.7871 51.7375V54.2375C19.7871 54.4033 19.853 54.5623 19.9702 54.6795C20.0874 54.7967 20.2463 54.8625 20.4121 54.8625ZM21.0371 52.3625H22.2871V53.6125H21.0371V52.3625Z" fill="#DB8C23"/>
<path d="M55.4121 31.1125H45.4121C45.2466 31.1132 45.088 31.1793 44.9709 31.2963C44.8538 31.4134 44.7878 31.572 44.7871 31.7375V41.7375C44.7871 41.9033 44.853 42.0623 44.9702 42.1795C45.0874 42.2967 45.2463 42.3625 45.4121 42.3625H55.4121C55.5779 42.3625 55.7368 42.2967 55.854 42.1795C55.9713 42.0623 56.0371 41.9033 56.0371 41.7375V31.7375C56.0365 31.572 55.9704 31.4134 55.8533 31.2963C55.7363 31.1793 55.5777 31.1132 55.4121 31.1125ZM54.7871 36.1125H46.0371V34.8625H54.7871V36.1125ZM46.0371 37.3625H54.7871V38.6125H46.0371V37.3625ZM46.0371 32.3625H54.7871V33.6125H46.0371V32.3625ZM54.7871 41.1125H46.0371V39.8625H54.7871V41.1125Z" fill="#DB8C23"/>
<path d="M60.4121 67.3625H62.9121C63.0779 67.3625 63.2368 67.2967 63.354 67.1795C63.4713 67.0623 63.5371 66.9033 63.5371 66.7375V56.7375C63.5365 56.572 63.4704 56.4134 63.3533 56.2963C63.2363 56.1793 63.0777 56.1132 62.9121 56.1125H60.4121C60.2466 56.1132 60.088 56.1793 59.9709 56.2963C59.8538 56.4134 59.7878 56.572 59.7871 56.7375V66.7375C59.7871 66.9033 59.853 67.0623 59.9702 67.1795C60.0874 67.2967 60.2463 67.3625 60.4121 67.3625ZM61.0371 62.3625H62.2871V63.6125H61.0371V62.3625ZM62.2871 61.1125H61.0371V59.8625H62.2871V61.1125ZM62.2871 66.1125H61.0371V64.8625H62.2871V66.1125ZM61.0371 57.3625H62.2871V58.6125H61.0371V57.3625Z" fill="#DB8C23"/>
<path d="M20.4121 59.8625H22.9121C23.0779 59.8625 23.2368 59.7967 23.3541 59.6795C23.4713 59.5623 23.5371 59.4033 23.5371 59.2375V56.7375C23.5365 56.572 23.4704 56.4134 23.3533 56.2963C23.2363 56.1793 23.0777 56.1132 22.9121 56.1125H20.4121C20.2466 56.1132 20.088 56.1793 19.9709 56.2963C19.8538 56.4134 19.7878 56.572 19.7871 56.7375V59.2375C19.7871 59.4033 19.853 59.5623 19.9702 59.6795C20.0874 59.7967 20.2463 59.8625 20.4121 59.8625ZM21.0371 57.3625H22.2871V58.6125H21.0371V57.3625Z" fill="#DB8C23"/>
<path d="M37.9121 16.1125H35.4121C35.2466 16.1132 35.088 16.1793 34.9709 16.2963C34.8538 16.4134 34.7878 16.572 34.7871 16.7375V19.2375C34.7871 19.4033 34.853 19.5623 34.9702 19.6795C35.0874 19.7967 35.2463 19.8625 35.4121 19.8625H37.9121C38.0779 19.8625 38.2368 19.7967 38.3541 19.6795C38.4713 19.5623 38.5371 19.4033 38.5371 19.2375V16.7375C38.5365 16.572 38.4704 16.4134 38.3533 16.2963C38.2363 16.1793 38.0777 16.1132 37.9121 16.1125ZM37.2871 18.6125H36.0371V17.3625H37.2871V18.6125Z" fill="#DB8C23"/>
<path d="M37.9121 21.1125H35.4121C35.2466 21.1132 35.088 21.1793 34.9709 21.2963C34.8538 21.4134 34.7878 21.572 34.7871 21.7375V24.2375C34.7871 24.4033 34.853 24.5623 34.9702 24.6795C35.0874 24.7967 35.2463 24.8625 35.4121 24.8625H37.9121C38.0779 24.8625 38.2368 24.7967 38.3541 24.6795C38.4713 24.5623 38.5371 24.4033 38.5371 24.2375V21.7375C38.5365 21.572 38.4704 21.4134 38.3533 21.2963C38.2363 21.1793 38.0777 21.1132 37.9121 21.1125ZM37.2871 23.6125H36.0371V22.3625H37.2871V23.6125Z" fill="#DB8C23"/>
<path d="M37.9121 26.1125H35.4121C35.2466 26.1132 35.088 26.1793 34.9709 26.2963C34.8538 26.4134 34.7878 26.572 34.7871 26.7375V29.2375C34.7871 29.4033 34.853 29.5623 34.9702 29.6795C35.0874 29.7967 35.2463 29.8625 35.4121 29.8625H37.9121C38.0779 29.8625 38.2368 29.7967 38.3541 29.6795C38.4713 29.5623 38.5371 29.4033 38.5371 29.2375V26.7375C38.5365 26.572 38.4704 26.4134 38.3533 26.2963C38.2363 26.1793 38.0777 26.1132 37.9121 26.1125ZM37.2871 28.6125H36.0371V27.3625H37.2871V28.6125Z" fill="#DB8C23"/>
<path d="M37.9121 31.1125H35.4121C35.2466 31.1132 35.088 31.1793 34.9709 31.2963C34.8538 31.4134 34.7878 31.572 34.7871 31.7375V34.2375C34.7871 34.4033 34.853 34.5623 34.9702 34.6795C35.0874 34.7967 35.2463 34.8625 35.4121 34.8625H37.9121C38.0779 34.8625 38.2368 34.7967 38.3541 34.6795C38.4713 34.5623 38.5371 34.4033 38.5371 34.2375V31.7375C38.5365 31.572 38.4704 31.4134 38.3533 31.2963C38.2363 31.1793 38.0777 31.1132 37.9121 31.1125ZM37.2871 33.6125H36.0371V32.3625H37.2871V33.6125Z" fill="#DB8C23"/>
<path d="M37.9121 36.1125H35.4121C35.2466 36.1132 35.088 36.1793 34.9709 36.2963C34.8538 36.4134 34.7878 36.572 34.7871 36.7375V39.2375C34.7871 39.4033 34.853 39.5623 34.9702 39.6795C35.0874 39.7967 35.2463 39.8625 35.4121 39.8625H37.9121C38.0779 39.8625 38.2368 39.7967 38.3541 39.6795C38.4713 39.5623 38.5371 39.4033 38.5371 39.2375V36.7375C38.5365 36.572 38.4704 36.4134 38.3533 36.2963C38.2363 36.1793 38.0777 36.1132 37.9121 36.1125ZM37.2871 38.6125H36.0371V37.3625H37.2871V38.6125Z" fill="#DB8C23"/>
<path d="M37.9121 41.1125H35.4121C35.2466 41.1132 35.088 41.1793 34.9709 41.2963C34.8538 41.4134 34.7878 41.572 34.7871 41.7375V44.2375C34.7871 44.4033 34.853 44.5623 34.9702 44.6795C35.0874 44.7967 35.2463 44.8625 35.4121 44.8625H37.9121C38.0779 44.8625 38.2368 44.7967 38.3541 44.6795C38.4713 44.5623 38.5371 44.4033 38.5371 44.2375V41.7375C38.5365 41.572 38.4704 41.4134 38.3533 41.2963C38.2363 41.1793 38.0777 41.1132 37.9121 41.1125ZM37.2871 43.6125H36.0371V42.3625H37.2871V43.6125Z" fill="#DB8C23"/>
<path d="M37.9121 46.1125H35.4121C35.2466 46.1132 35.088 46.1793 34.9709 46.2963C34.8538 46.4134 34.7878 46.572 34.7871 46.7375V49.2375C34.7871 49.4033 34.853 49.5623 34.9702 49.6795C35.0874 49.7967 35.2463 49.8625 35.4121 49.8625H37.9121C38.0779 49.8625 38.2368 49.7967 38.3541 49.6795C38.4713 49.5623 38.5371 49.4033 38.5371 49.2375V46.7375C38.5365 46.572 38.4704 46.4134 38.3533 46.2963C38.2363 46.1793 38.0777 46.1132 37.9121 46.1125ZM37.2871 48.6125H36.0371V47.3625H37.2871V48.6125Z" fill="#DB8C23"/>
<path d="M37.9121 51.1125H35.4121C35.2466 51.1132 35.088 51.1793 34.9709 51.2963C34.8538 51.4134 34.7878 51.572 34.7871 51.7375V54.2375C34.7871 54.4033 34.853 54.5623 34.9702 54.6795C35.0874 54.7967 35.2463 54.8625 35.4121 54.8625H37.9121C38.0779 54.8625 38.2368 54.7967 38.3541 54.6795C38.4713 54.5623 38.5371 54.4033 38.5371 54.2375V51.7375C38.5365 51.572 38.4704 51.4134 38.3533 51.2963C38.2363 51.1793 38.0777 51.1132 37.9121 51.1125ZM37.2871 53.6125H36.0371V52.3625H37.2871V53.6125Z" fill="#DB8C23"/>
<path d="M37.9121 56.1125H35.4121C35.2466 56.1132 35.088 56.1793 34.9709 56.2963C34.8538 56.4134 34.7878 56.572 34.7871 56.7375V59.2375C34.7871 59.4033 34.853 59.5623 34.9702 59.6795C35.0874 59.7967 35.2463 59.8625 35.4121 59.8625H37.9121C38.0779 59.8625 38.2368 59.7967 38.3541 59.6795C38.4713 59.5623 38.5371 59.4033 38.5371 59.2375V56.7375C38.5365 56.572 38.4704 56.4134 38.3533 56.2963C38.2363 56.1793 38.0777 56.1132 37.9121 56.1125ZM37.2871 58.6125H36.0371V57.3625H37.2871V58.6125Z" fill="#DB8C23"/>
<path d="M37.9121 61.1125H35.4121C35.2466 61.1132 35.088 61.1793 34.9709 61.2963C34.8538 61.4134 34.7878 61.572 34.7871 61.7375V64.2375C34.7871 64.4033 34.853 64.5623 34.9702 64.6795C35.0874 64.7967 35.2463 64.8625 35.4121 64.8625H37.9121C38.0779 64.8625 38.2368 64.7967 38.3541 64.6795C38.4713 64.5623 38.5371 64.4033 38.5371 64.2375V61.7375C38.5365 61.572 38.4704 61.4134 38.3533 61.2963C38.2363 61.1793 38.0777 61.1132 37.9121 61.1125ZM37.2871 63.6125H36.0371V62.3625H37.2871V63.6125Z" fill="#DB8C23"/>
<path d="M37.9121 66.1125H35.4121C35.2466 66.1132 35.088 66.1793 34.9709 66.2963C34.8538 66.4134 34.7878 66.572 34.7871 66.7375V69.2375C34.7871 69.4033 34.853 69.5623 34.9702 69.6795C35.0874 69.7967 35.2463 69.8625 35.4121 69.8625H37.9121C38.0779 69.8625 38.2368 69.7967 38.3541 69.6795C38.4713 69.5623 38.5371 69.4033 38.5371 69.2375V66.7375C38.5365 66.572 38.4704 66.4134 38.3533 66.2963C38.2363 66.1793 38.0777 66.1132 37.9121 66.1125ZM37.2871 68.6125H36.0371V67.3625H37.2871V68.6125Z" fill="#DB8C23"/>
</svg>
